<?xml version="1.0" encoding="UTF-8"?>
<svg version="1.1" xmlns="http://www.w3.org/2000/svg" width="748" height="352">
<path d="M0 0 C0.33 0 0.66 0 1 0 C1.00142502 1.02650665 1.00285004 2.05301331 1.00431824 3.11062622 C1.02099951 12.79219669 1.06380763 22.47334745 1.13209057 32.15469551 C1.16635771 37.13183728 1.19147013 42.10867219 1.19555664 47.0859375 C1.19984016 51.89080441 1.2283074 56.69497913 1.27343178 61.49962997 C1.28640505 63.33116497 1.29071506 65.1627828 1.28615379 66.99435806 C1.28124645 69.56356467 1.30734389 72.13074924 1.34057617 74.69970703 C1.32763771 75.83151649 1.32763771 75.83151649 1.31443787 76.9861908 C1.43915459 82.7508887 3.04349013 85.10482467 7 89 C9.36583459 90.1829173 10.77055985 90.12281862 13.40920448 90.11911201 C14.80810226 90.12084834 14.80810226 90.12084834 16.23526061 90.12261975 C17.26675211 90.11882302 18.29824361 90.11502629 19.36099243 90.1111145 C20.45144879 90.11111352 21.54190514 90.11111253 22.66540563 90.11111152 C26.34417542 90.11007283 30.02289897 90.10204312 33.70166016 90.09423828 C36.32933521 90.09236033 38.95701069 90.09101474 41.58468628 90.09016418 C46.52026943 90.08831253 51.45584634 90.0847832 56.39142685 90.07934658 C66.09392641 90.06889963 75.79637256 90.07313024 85.49887085 90.08297729 C87.02576593 90.08446491 88.55266102 90.08595076 90.07955611 90.08743489 C93.1713016 90.09048581 96.26304699 90.09361739 99.35479236 90.09679389 C107.30765381 90.10491675 115.26051539 90.11235337 123.21337891 90.11816406 C124.01163418 90.118753 124.80988945 90.11934194 125.63233428 90.11994873 C138.55989472 90.12880881 151.48735413 90.11591842 164.41489799 90.09587134 C177.68593725 90.07588374 190.95678095 90.08252904 204.22780073 90.11301792 C212.41371909 90.13091964 220.59907013 90.12760857 228.7849534 90.09703366 C234.39828434 90.07798874 240.01122073 90.08455953 245.62451942 90.11117335 C248.86232365 90.12574759 252.09888024 90.12519781 255.33666229 90.10164452 C258.85109425 90.07784453 262.36277947 90.09707825 265.87710571 90.12698364 C266.89521289 90.10980258 267.91332006 90.09262152 268.96227896 90.07491982 C275.49014881 90.19060148 278.78601541 91.64786394 283.41520917 96.28314865 C283.93819015 96.84970959 284.46117112 97.41627054 285 98 C285.763125 98.73089844 286.52625 99.46179688 287.3125 100.21484375 C288.1478125 101.06755859 288.1478125 101.06755859 289 101.9375 C289.5775 102.52402344 290.155 103.11054688 290.75 103.71484375 C291.1625 104.13894531 291.575 104.56304687 292 105 C293.20406371 101.38780886 292.74602669 100.83380235 291.1640625 97.5078125 C290.75929688 96.63769531 290.35453125 95.76757812 289.9375 94.87109375 C289.504375 93.96488281 289.07125 93.05867188 288.625 92.125 C287.77903184 90.33821271 286.93772432 88.54920982 286.1015625 86.7578125 C285.72338379 85.9652002 285.34520508 85.17258789 284.95556641 84.35595703 C283.03432267 79.61911439 282.61381223 76.19923818 284.5703125 71.3359375 C287.73001712 66.17336 292.49137756 61.99461011 297 58 C297.33 58 297.66 58 298 58 C297.896875 59.0725 297.79375 60.145 297.6875 61.25 C297.69838084 67.43031791 300.46446401 72.48943511 303 78 C303.41121094 79.12277344 303.82242187 80.24554688 304.24609375 81.40234375 C305.56840717 84.70224163 306.70248598 87.28058719 309 90 C313.08038776 91.30091748 316.75496762 91.35718719 321 91 C320.52046875 90.11054688 320.52046875 90.11054688 320.03125 89.203125 C318.46207368 85.85079377 318.51005925 83.67455565 319 80 C323.12982065 72.42941275 330.38996541 66.30604559 336.45117188 60.28808594 C338.26673429 58.48336564 340.0712101 56.6680414 341.875 54.8515625 C343.02539988 53.70248212 344.17641887 52.55402115 345.328125 51.40625 C345.86769836 50.86262817 346.40727173 50.31900635 346.9631958 49.75891113 C350.77000772 46 350.77000772 46 353 46 C352.87238281 46.67160156 352.74476563 47.34320313 352.61328125 48.03515625 C351.34962494 60.75377495 358.25995317 71.10476773 364 82 C365.06046829 84.03876484 366.12037136 86.07782378 367.1796875 88.1171875 C369.48051237 92.53430071 371.80945601 96.93544906 374.16479492 101.32373047 C375 103 375 103 375 104 C373.7354599 104.00213753 373.7354599 104.00213753 372.44537354 104.00431824 C364.49962474 104.02214957 356.554433 104.06376646 348.60895157 104.13209057 C344.52405712 104.16637836 340.43953735 104.19147323 336.35449219 104.19555664 C332.41192019 104.19983592 328.47019365 104.2282662 324.52788544 104.27343178 C323.02405472 104.28641892 321.52012288 104.2907101 320.01624298 104.28615379 C317.90866383 104.28125569 315.80356337 104.30729635 313.69628906 104.34057617 C312.49715881 104.34723801 311.29802856 104.35389984 310.06256104 104.36076355 C306.10709647 105.18637228 305.18554051 106.70056394 303 110 C301.69869576 111.22251434 300.36594014 112.41265586 299 113.5625 C296.76616194 115.46416883 294.67548171 117.33305824 292.625 119.4375 C291 121 291 121 289 121 C288.75765625 120.48050781 288.5153125 119.96101563 288.265625 119.42578125 C285.30261032 113.26043148 282.47596791 107.9164174 276 105 C272.2077756 104.54556983 268.4325518 104.5843108 264.61698914 104.60127258 C263.45298814 104.59462576 262.28898715 104.58797893 261.08971339 104.58113068 C257.86286797 104.56570634 254.63633294 104.5636625 251.40946281 104.56726015 C247.92822606 104.56788383 244.44706664 104.55126547 240.96586609 104.53674316 C234.93580745 104.51394688 228.90580663 104.50207029 222.87570763 104.49761391 C214.15721721 104.49115495 205.43883133 104.46822208 196.72038303 104.44127061 C182.57524075 104.39799082 168.43010288 104.36803088 154.28491211 104.34643555 C140.54433022 104.32542943 126.80378432 104.29815755 113.06323242 104.26245117 C112.2162393 104.26025235 111.36924617 104.25805352 110.49658658 104.25578807 C106.24746325 104.24471851 101.99834024 104.23352568 97.74921739 104.22227156 C62.49950899 104.12906958 27.24978407 104.05747943 -8 104 C-8.00142502 103.17695877 -8.00285004 102.35391754 -8.00431824 101.50593567 C-8.02225323 93.69539826 -8.06417389 85.885511 -8.13209057 78.07526112 C-8.16617526 74.06124929 -8.19144134 70.04761056 -8.19555664 66.03344727 C-8.19987988 62.14919101 -8.22866938 58.26577373 -8.27343178 54.38178062 C-8.28627979 52.91050823 -8.29076027 51.43913477 -8.28615379 49.96781349 C-8.25454344 36.78825844 -11.88498352 26.55058669 -18 15 C-16.88625 14.38125 -15.7725 13.7625 -14.625 13.125 C-9.72569105 10.10127623 -5.96422784 6.15342912 -2.00390625 2.01171875 C-1.34261719 1.34785156 -0.68132812 0.68398437 0 0 Z M342 74 C340.64172029 75.64639965 339.30745749 77.31295807 338 79 C338.64477069 80.62542193 339.29085143 82.25032424 339.9375 83.875 C340.29714844 84.77992188 340.65679688 85.68484375 341.02734375 86.6171875 C341.94901262 88.96137667 341.94901262 88.96137667 343 91 C345.31 91 347.62 91 350 91 C348.24009216 85.08030998 345.60305395 79.58365008 343 74 C342.67 74 342.34 74 342 74 Z " fill="#009141" transform="translate(271,82)"/>
<path d="M0 0 C2.28341719 2.28341719 4.12397258 4.40929546 6 7 C6.45375 6.505 6.9075 6.01 7.375 5.5 C9 4 9 4 11 4 C10.80857422 5.00740234 10.80857422 5.00740234 10.61328125 6.03515625 C9.35050965 18.74487045 16.25464089 29.11424708 22 40 C22.97418008 41.86707181 23.94814617 43.73425531 24.921875 45.6015625 C26.96701759 49.51013766 29.04045195 53.40231504 31.14306641 57.28027344 C32 59 32 59 33 62 C14.19 62 -4.62 62 -24 62 C-23.34 60.68 -22.68 59.36 -22 58 C-22.2958515 54.50895229 -22.80152664 51.13881314 -23.40234375 47.69140625 C-24.18335651 42.48757967 -24.12850815 39.49723047 -21 35 C-19.33767384 33.20368281 -17.61580398 31.4932499 -15.85546875 29.79296875 C-11.57207614 25.69906237 -11.57207614 25.69906237 -8 21 C-7.83789781 18.39351495 -7.83789781 18.39351495 -9 16 C-9.66 14.02 -10.32 12.04 -11 10 C-7.37 6.7 -3.74 3.4 0 0 Z M0 32 C-1.35827971 33.64639965 -2.69254251 35.31295807 -4 37 C-3.35522931 38.62542193 -2.70914857 40.25032424 -2.0625 41.875 C-1.70285156 42.77992188 -1.34320313 43.68484375 -0.97265625 44.6171875 C-0.05098738 46.96137667 -0.05098738 46.96137667 1 49 C3.31 49 5.62 49 8 49 C6.24009216 43.08030998 3.60305395 37.58365008 1 32 C0.67 32 0.34 32 0 32 Z " fill="#009141" transform="translate(169,124)"/>
<path d="M0 0 C-0.0630835 0.65266846 -0.12616699 1.30533691 -0.19116211 1.9777832 C-0.63774109 10.26919294 1.70592352 15.89543542 5.4375 23.1875 C12.16649322 36.58668125 12.16649322 36.58668125 12 43 C9.2137845 49.84976616 5.24310069 54.33216821 0.015625 59.48046875 C-0.75879944 60.25634842 -1.53322388 61.03222809 -2.33111572 61.83161926 C-3.96364265 63.4624935 -5.60109235 65.08845327 -7.24316406 66.7097168 C-9.74059434 69.17820335 -12.21884316 71.66480124 -14.6953125 74.15429688 C-16.29055685 75.74330245 -17.88687615 77.33122973 -19.484375 78.91796875 C-20.21799255 79.65452194 -20.95161011 80.39107513 -21.7074585 81.14994812 C-29.12620549 88.43564024 -36.54693549 93.92024397 -47.3125 94.25 C-51 94 -51 94 -53 92 C-52.20078125 91.62230469 -51.4015625 91.24460937 -50.578125 90.85546875 C-42.64200143 86.87809227 -36.31036407 82.25481587 -30.00585938 75.97802734 C-27.98876566 73.98892154 -25.94287329 72.03202856 -23.89137268 70.07850647 C-21.86249559 68.13989979 -19.84880966 66.18597092 -17.83786011 64.22879028 C-16.82706725 63.24885732 -15.81173966 62.27357875 -14.79177856 61.30319214 C-13.34269385 59.92037808 -11.91510605 58.51514605 -10.48828125 57.109375 C-9.22818237 55.88686035 -9.22818237 55.88686035 -7.94262695 54.63964844 C-5.50305932 51.32475524 -5.10417129 49.09187127 -5 45 C-5.72479959 42.38614528 -5.72479959 42.38614528 -7.08984375 40.0390625 C-7.54423828 39.15476563 -7.99863281 38.27046875 -8.46679688 37.359375 C-9.44312999 35.54414744 -10.41969055 33.72904219 -11.39648438 31.9140625 C-14.33804517 26.1890446 -16.09360355 21.4861425 -15 15 C-12.80839235 10.42621012 -5.53290818 0 0 0 Z " fill="#009141" transform="translate(236,131)"/>
<path d="M0 0 C3.1182279 3.03568657 5.97869895 6.11479428 8 10 C8 14.46021903 6.47027985 17.34828196 4 21 C0.89257577 19.53181332 -1.90471739 17.79975 -4.75 15.875 C-5.54921875 15.33617187 -6.3484375 14.79734375 -7.171875 14.2421875 C-7.77515625 13.83226562 -8.3784375 13.42234375 -9 13 C-9 9.5601241 -8.53558242 7.56728708 -6.15234375 5.04296875 C-4.14191738 3.30201752 -2.10706247 1.62229411 0 0 Z " fill="#009141" transform="translate(558,118)"/>
<path d="M0 0 C3.55893899 1.186313 4.17667665 2.21046771 6.25 5.25 C7.06210938 6.40242188 7.06210938 6.40242188 7.890625 7.578125 C9.26155071 10.57099098 8.9997753 11.90932406 8 15 C6.4375 17.8125 6.4375 17.8125 5 20 C1.89257577 18.53181332 -0.90471739 16.79975 -3.75 14.875 C-4.54921875 14.33617188 -5.3484375 13.79734375 -6.171875 13.2421875 C-6.77515625 12.83226563 -7.3784375 12.42234375 -8 12 C-7.49445171 7.87728932 -6.47020957 5.99964887 -3.4375 3.1875 C-2.79683594 2.58292969 -2.15617188 1.97835937 -1.49609375 1.35546875 C-1.00238281 0.90816406 -0.50867188 0.46085937 0 0 Z " fill="#009141" transform="translate(159,104)"/>
<path d="M0 0 C3.26535828 1.08845276 3.74013142 1.61239684 5.625 4.3125 C6.05039063 4.90675781 6.47578125 5.50101562 6.9140625 6.11328125 C8.09416847 8.16360925 8.73333366 9.64520059 9 12 C8.22265625 14.140625 8.22265625 14.140625 7.0625 16.25 C6.68222656 16.95640625 6.30195313 17.6628125 5.91015625 18.390625 C5.60980469 18.92171875 5.30945313 19.4528125 5 20 C1.89257577 18.53181332 -0.90471739 16.79975 -3.75 14.875 C-4.54921875 14.33617188 -5.3484375 13.79734375 -6.171875 13.2421875 C-6.77515625 12.83226563 -7.3784375 12.42234375 -8 12 C-7.27514969 7.13780186 -5.65961842 5.30258248 -2 2 C-1.34 1.34 -0.68 0.68 0 0 Z " fill="#009141" transform="translate(178,104)"/>
</svg>
