<?xml version="1.0" encoding="UTF-8"?>
<svg version="1.1" xmlns="http://www.w3.org/2000/svg" width="931" height="931">
<path d="M0 0 C5.44305294 4.54065206 10.50260354 9.35078389 15.5 14.375 C16.22058594 15.09171875 16.94117188 15.8084375 17.68359375 16.546875 C21.01152189 19.88082109 24.25123687 23.23903889 27.3125 26.8203125 C32.06949518 32.33978605 37.31671506 37.38620052 42.5 42.5 C48.22906924 48.15226717 53.89509328 53.78057137 59.12695312 59.90429688 C63.36162711 64.64236276 67.97759787 69.03822375 72.5 73.5 C78.22906924 79.15226717 83.89509328 84.78057137 89.12695312 90.90429688 C93.36162711 95.64236276 97.97759787 100.03822375 102.5 104.5 C113.69229488 115.54225454 113.69229488 115.54225454 117.28125 119.78125 C118.0908744 120.64441078 118.0908744 120.64441078 118.91685486 121.52500916 C120.62368768 123.55290223 121.8291816 125.3802338 123.17018127 127.63404846 C126.88550054 133.10106375 131.2945242 137.78483505 137.90513945 139.49199247 C149.99414054 141.64287446 162.65802417 140.91762501 174.87779117 140.72283816 C180.02269714 140.65676426 185.16729684 140.67638282 190.31251526 140.6865387 C200.03458854 140.69289863 209.75454065 140.62326662 219.4760657 140.5256682 C230.55234361 140.41821813 241.6282854 140.39648721 252.70501411 140.3816117 C275.47089587 140.34913566 298.23511323 140.21013272 321 140 C320.99409222 140.97237956 320.98818443 141.94475912 320.98209763 142.94660473 C320.84088683 166.64323292 320.76908311 190.33930441 320.76940536 214.03636456 C320.76796632 225.49637171 320.74425117 236.95551265 320.66748047 248.4152832 C320.60059754 258.40761647 320.57613657 268.39901567 320.60190511 278.39155513 C320.61407873 283.67946855 320.60549393 288.9654545 320.5460434 294.253088 C320.49066017 299.23872492 320.49235372 304.22120486 320.53630638 309.20692444 C320.54258252 311.02853997 320.52866996 312.85036473 320.49215889 314.67162514 C320.33225919 323.18149446 320.35626162 329.98456456 326.12486482 336.66084462 C328.15079664 338.75838464 330.25024238 340.72731131 332.45334482 342.63721335 C334.93861178 344.8270283 337.20849207 347.210035 339.51953125 349.58203125 C341.28121767 351.3281848 343.04551323 353.07171022 344.8125 354.8125 C354.64285677 364.50028452 354.64285677 364.50028452 358.41796875 368.91796875 C363.12838207 374.41402728 368.35111361 379.42013794 373.5 384.5 C379.22906924 390.15226717 384.89509328 395.78057137 390.12695312 401.90429688 C394.36162711 406.64236276 398.97759787 411.03822375 403.5 415.5 C409.22906924 421.15226717 414.89509328 426.78057137 420.12695312 432.90429688 C424.36162711 437.64236276 428.97759787 442.03822375 433.5 446.5 C444.60807704 457.4591657 444.60807704 457.4591657 449.21875 462.46875 C449.76466797 463.06107422 450.31058594 463.65339844 450.87304688 464.26367188 C452 466 452 466 452 470 C450.04485057 472.31759768 448.10368491 474.38434694 445.9375 476.48828125 C445.31278809 477.10970505 444.68807617 477.73112885 444.04443359 478.37138367 C442.03878396 480.3612667 440.01943057 482.33661445 438 484.3125 C436.66971264 485.63129425 435.34027552 486.95094674 434.01171875 488.27148438 C428.46777412 493.76274406 422.91632369 499.17871257 416.97265625 504.23901367 C412.27453644 508.43301593 407.92187483 513.01804147 403.5 517.5 C397.84773283 523.22906924 392.21942863 528.89509328 386.09570312 534.12695312 C381.35763724 538.36162711 376.96177625 542.97759787 372.5 547.5 C366.84773283 553.22906924 361.21942863 558.89509328 355.09570312 564.12695312 C350.35763724 568.36162711 345.96177625 572.97759787 341.5 577.5 C339.51349704 579.51349523 337.523424 581.52336722 335.53125 583.53125 C334.1943349 584.88597744 332.8578132 586.24124207 331.53876495 587.61337185 C330 589 330 589 328.00267792 590.14371586 C325.31352969 591.86397283 323.7853413 593.32997479 322 596 C320.76844586 602.24570404 320.92937626 608.44184561 321 614.78686523 C320.99239027 616.71892418 320.98126834 618.65097202 320.96690369 620.58299255 C320.93790979 625.81836457 320.95798917 631.05253034 320.9869194 636.28785968 C321.0088142 641.76253833 320.98552505 647.23702078 320.96704102 652.71168518 C320.93891284 663.07432283 320.95138523 673.43649752 320.97846508 683.79912192 C321.00732089 695.59839993 320.99088404 707.39747905 320.97065353 719.1967591 C320.93005911 743.46462038 320.94630812 767.73217711 321 792 C319.46054214 791.98699026 319.46054214 791.98699026 317.88998413 791.97371769 C292.86550626 791.76569985 267.84174629 791.64474346 242.81640625 791.61396885 C230.71392185 791.59709069 218.6127576 791.55239434 206.51074219 791.44116211 C195.95689609 791.34423116 185.40436979 791.30056182 174.85007286 791.31963962 C169.26599417 791.32790512 163.68480757 791.31032595 158.10125732 791.22885323 C152.83367413 791.15283523 147.57067748 791.14861962 142.30281448 791.19698334 C140.38081161 791.20242848 138.45852725 791.18272975 136.53712082 791.13454247 C126.69455346 790.90246002 119.7619961 791.49456796 112.17779922 798.21829027 C109.5515588 800.77880177 107.0555507 803.42077957 104.62905121 806.17080963 C102.31458796 808.76961921 99.8386293 811.16842615 97.34375 813.59375 C95.72641199 815.22644249 94.11172501 816.86176635 92.5 818.5 C83.540865 827.60089347 83.540865 827.60089347 79.09375 831.40625 C73.77465051 835.97229652 68.91783072 841.01196231 64 846 C53.49415131 856.65583021 53.49415131 856.65583021 49.03125 860.46875 C43.54917923 865.15809771 38.56274894 870.36845926 33.5 875.5 C27.84773283 881.22906924 22.21942863 886.89509328 16.09570312 892.12695312 C11.35763724 896.36162711 6.96177625 900.97759787 2.5 905.5 C-3.30339336 911.38224892 -9.0806596 917.22383801 -15.36914062 922.59619141 C-17.33777679 924.29075098 -19.18270383 926.08234349 -21 927.9375 C-21.86625 928.81728516 -21.86625 928.81728516 -22.75 929.71484375 C-23.36875 930.35099609 -23.36875 930.35099609 -24 931 C-27.77263941 929.46870192 -29.78265116 927.23469103 -32.4375 924.1875 C-38.81078626 917.01012887 -45.64243588 910.3008776 -52.47436523 903.56323242 C-56.24455503 899.82867307 -59.9731866 896.11400016 -63.421875 892.078125 C-68.13067192 886.58314447 -73.35244725 881.5785463 -78.5 876.5 C-84.22906924 870.84773283 -89.89509328 865.21942863 -95.12695312 859.09570312 C-99.36162711 854.35763724 -103.97759787 849.96177625 -108.5 845.5 C-114.22906924 839.84773283 -119.89509328 834.21942863 -125.12695312 828.09570312 C-129.36162711 823.35763724 -133.97759787 818.96177625 -138.5 814.5 C-150.38077838 802.77849155 -150.38077838 802.77849155 -155.67773438 796.54101562 C-158.21910706 793.45739203 -158.21910706 793.45739203 -162.13530922 792.73828697 C-163.5114011 792.72244329 -164.88764643 792.71779805 -166.26382446 792.7215271 C-167.0209905 792.7157347 -167.77815654 792.7099423 -168.558267 792.70397437 C-171.10871137 792.68689806 -173.65897563 792.68409136 -176.20947266 792.68115234 C-178.03240914 792.67185942 -179.85534134 792.66169171 -181.67826843 792.65071106 C-186.6387265 792.62332527 -191.59915604 792.60823633 -196.55966997 792.59528303 C-201.73938821 792.57968989 -206.91904785 792.5528876 -212.09872437 792.5272522 C-221.91240033 792.48039661 -231.72608724 792.44368538 -241.53981817 792.41057932 C-252.71018393 792.37240574 -263.88049094 792.32298317 -275.05080724 792.27259517 C-298.03382799 792.16917451 -321.01688646 792.07994716 -344 792 C-343.99132684 791.02946403 -343.98265368 790.05892805 -343.97371769 789.0589819 C-343.76570658 765.39512538 -343.64474458 741.73202799 -343.61396885 718.06725979 C-343.59709007 706.62274113 -343.55238998 695.17961845 -343.44116211 683.7355957 C-343.34423557 673.75563146 -343.30056068 663.77706281 -343.31963962 653.79662186 C-343.32790584 648.51599967 -343.31032019 643.23843558 -343.22885323 637.95837212 C-343.15284139 632.97716031 -343.14861282 628.00079849 -343.19698334 623.01929092 C-343.20242919 621.20167821 -343.18272204 619.38376803 -343.13454247 617.56678581 C-342.89722289 608.04771233 -343.54939071 601.65151109 -350.31136888 594.53969675 C-352.89901749 592.06465727 -355.56942936 589.72131476 -358.32435882 587.43477929 C-360.32516187 585.72157791 -362.02559649 583.85317763 -363.6875 581.8125 C-368.43155877 576.20918568 -373.77922048 571.15396881 -379 566 C-384.89971257 560.17578649 -390.75904721 554.38944286 -396.14453125 548.078125 C-400.3711181 543.34434772 -404.98371166 538.95574442 -409.5 534.5 C-415.22906924 528.84773283 -420.89509328 523.21942863 -426.12695312 517.09570312 C-430.36162711 512.35763724 -434.97759787 507.96177625 -439.5 503.5 C-445.24862802 497.82843626 -450.94021731 492.18204958 -456.18994141 486.03710938 C-460.07172531 481.66840086 -464.28727732 477.61137971 -468.4375 473.5 C-469.35982422 472.5821875 -470.28214844 471.664375 -471.23242188 470.71875 C-473.48599899 468.47684945 -475.74189075 466.237334 -478 464 C-476.26929577 460.27677577 -474.30383434 458.27758958 -471.1875 455.5625 C-464.01012887 449.18921374 -457.3008776 442.35756412 -450.56323242 435.52563477 C-446.82867307 431.75544497 -443.11400016 428.0268134 -439.078125 424.578125 C-433.58314447 419.86932808 -428.5785463 414.64755275 -423.5 409.5 C-417.84773283 403.77093076 -412.21942863 398.10490672 -406.09570312 392.87304688 C-401.35763724 388.63837289 -396.96177625 384.02240213 -392.5 379.5 C-381.46255939 368.31258447 -381.46255939 368.31258447 -377.01171875 364.51171875 C-371.4672025 359.77533317 -366.43055193 354.4990645 -361.3125 349.3125 C-359.29073623 347.26395367 -357.26554143 345.21888681 -355.23828125 343.17578125 C-354.35180908 342.27770752 -353.46533691 341.37963379 -352.55200195 340.4543457 C-350 338 -350 338 -347.38045216 336.33697891 C-344.65737964 333.66363678 -344.40213109 332.15641159 -344.32842034 328.4060905 C-344.3390936 327.66289789 -344.34976686 326.91970529 -344.36076355 326.1539917 C-344.35240787 325.35836484 -344.3440522 324.56273798 -344.33544332 323.74300122 C-344.31347627 321.07399175 -344.32713115 318.40635335 -344.34057617 315.73730469 C-344.33212536 313.82539829 -344.32148236 311.9135005 -344.30880737 310.00161743 C-344.28060375 304.80768554 -344.2831428 299.6141658 -344.29110122 294.42018032 C-344.29422113 288.99353854 -344.26920703 283.56702921 -344.24714661 278.14044189 C-344.20965607 267.86283783 -344.19755565 257.58536609 -344.1945222 247.3077004 C-344.18983681 235.60764539 -344.15693016 223.9077234 -344.12162435 212.20772696 C-344.04962701 188.13850076 -344.01316303 164.06932517 -344 140 C-342.97939326 140.00498599 -341.95878653 140.00997198 -340.90725231 140.01510906 C-316.05132407 140.13401378 -291.19586765 140.18948236 -266.33964825 140.17878246 C-254.31916818 140.17507021 -242.29937257 140.19182281 -230.27905273 140.25708008 C-219.79967855 140.31391941 -209.32106791 140.33202746 -198.84156448 140.3040064 C-193.29453802 140.29051683 -187.74904589 140.29616346 -182.20221519 140.34822655 C-176.97545912 140.39667257 -171.75125593 140.39312439 -166.52447319 140.35058594 C-164.61173222 140.34402078 -162.69881751 140.35606347 -160.78634262 140.38863564 C-148.91428717 140.76207677 -148.91428717 140.76207677 -138.93616849 135.14068252 C-136.81092123 132.87405533 -134.91001694 130.44857795 -133 128 C-131.70952659 126.80764898 -130.39311498 125.64136095 -129.03125 124.53125 C-123.54917923 119.84190229 -118.56274894 114.63154074 -113.5 109.5 C-107.84773283 103.77093076 -102.21942863 98.10490672 -96.09570312 92.87304688 C-91.35763724 88.63837289 -86.96177625 84.02240213 -82.5 79.5 C-76.84773283 73.77093076 -71.21942863 68.10490672 -65.09570312 62.87304688 C-60.35763724 58.63837289 -55.96177625 54.02240213 -51.5 49.5 C-45.84773283 43.77093076 -40.21942863 38.10490672 -34.09570312 32.87304688 C-29.35763724 28.63837289 -24.96177625 24.02240213 -20.5 19.5 C-14.1869473 13.10116657 -7.86080336 6.82100637 -1 1 C-0.67 0.67 -0.34 0.34 0 0 Z " fill="#FCFDFD" transform="translate(478,0)"/>
<path d="M0 0 C6.0017498 4.93964239 11.49128976 10.33805317 16.97021484 15.83984375 C18.49336388 17.36834058 20.02177002 18.89143238 21.55078125 20.4140625 C25.65063436 24.51141346 29.73111022 28.59870915 33.5 33.0078125 C38.17967991 38.4753977 43.38070065 43.44932835 48.5 48.5 C54.22906924 54.15226717 59.89509328 59.78057137 65.12695312 65.90429688 C69.36162711 70.64236276 73.97759787 75.03822375 78.5 79.5 C84.22906924 85.15226717 89.89509328 90.78057137 95.12695312 96.90429688 C99.36162711 101.64236276 103.97759787 106.03822375 108.5 110.5 C114.22906924 116.15226717 119.89509328 121.78057137 125.12695312 127.90429688 C129.36162711 132.64236276 133.97759787 137.03822375 138.5 141.5 C149.68787416 152.53789308 149.68787416 152.53789308 153.46875 156.96875 C158.30633396 162.63098813 163.704018 167.77179108 169 173 C174.89971257 178.82421351 180.75904721 184.61055714 186.14453125 190.921875 C190.3711181 195.65565228 194.98371166 200.04425558 199.5 204.5 C205.22906924 210.15226717 210.89509328 215.78057137 216.12695312 221.90429688 C220.36162711 226.64236276 224.97759787 231.03822375 229.5 235.5 C235.22906924 241.15226717 240.89509328 246.78057137 246.12695312 252.90429688 C250.36162711 257.64236276 254.97759787 262.03822375 259.5 266.5 C265.22906924 272.15226717 270.89509328 277.78057137 276.12695312 283.90429688 C280.36162711 288.64236276 284.97759787 293.03822375 289.5 297.5 C295.34112401 303.26281977 301.13655112 308.99980379 306.47119141 315.24414062 C308.8338746 317.95771736 311.37154962 320.48018704 313.9375 323 C314.43056641 323.48855469 314.92363281 323.97710937 315.43164062 324.48046875 C316.61873229 325.65603525 317.80900498 326.82838826 319 328 C315.26219613 332.56842695 311.28759546 336.82168674 307.125 341 C306.64385742 341.4856543 306.16271484 341.97130859 305.66699219 342.47167969 C302.97829775 345.1496693 300.22065332 347.69040261 297.3359375 350.15625 C291.77266803 354.9766025 286.66624576 360.26355614 281.5 365.5 C275.84773283 371.22906924 270.21942863 376.89509328 264.09570312 382.12695312 C259.35763724 386.36162711 254.96177625 390.97759787 250.5 395.5 C244.84773283 401.22906924 239.21942863 406.89509328 233.09570312 412.12695312 C228.35763724 416.36162711 223.96177625 420.97759787 219.5 425.5 C213.84773283 431.22906924 208.21942863 436.89509328 202.09570312 442.12695312 C197.35763724 446.36162711 192.96177625 450.97759787 188.5 455.5 C182.84773283 461.22906924 177.21942863 466.89509328 171.09570312 472.12695312 C166.35763724 476.36162711 161.96177625 480.97759787 157.5 485.5 C151.8375977 491.2393421 146.19923208 496.91689967 140.06445312 502.15820312 C135.50807878 506.22316151 131.2857743 510.65304197 127 515 C116.49415131 525.65583021 116.49415131 525.65583021 112.03125 529.46875 C106.54917923 534.15809771 101.56274894 539.36845926 96.5 544.5 C90.84773283 550.22906924 85.21942863 555.89509328 79.09570312 561.12695312 C74.35763724 565.36162711 69.96177625 569.97759787 65.5 574.5 C59.84773283 580.22906924 54.21942863 585.89509328 48.09570312 591.12695312 C43.35763724 595.36162711 38.96177625 599.97759787 34.5 604.5 C28.77774436 610.3000087 23.08103313 616.04928038 16.88085938 621.34619141 C13.4293844 624.38101637 10.22753259 627.66825973 7 630.9375 C5.98099609 631.96327148 5.98099609 631.96327148 4.94140625 633.00976562 C3.29191641 634.67087159 1.6448332 636.33428513 0 638 C-3.6425656 636.29358151 -5.97975319 634.25681802 -8.8125 631.375 C-9.62332031 630.55773437 -10.43414062 629.74046875 -11.26953125 628.8984375 C-13.28272205 626.76140234 -15.20027575 624.61135607 -17.10546875 622.3828125 C-21.94773247 616.80806689 -27.24709653 611.68248472 -32.5 606.5 C-38.22906924 600.84773283 -43.89509328 595.21942863 -49.12695312 589.09570312 C-53.36162711 584.35763724 -57.97759787 579.96177625 -62.5 575.5 C-68.22906924 569.84773283 -73.89509328 564.21942863 -79.12695312 558.09570312 C-83.36162711 553.35763724 -87.97759787 548.96177625 -92.5 544.5 C-98.22906924 538.84773283 -103.89509328 533.21942863 -109.12695312 527.09570312 C-113.36162711 522.35763724 -117.97759787 517.96177625 -122.5 513.5 C-128.22906924 507.84773283 -133.89509328 502.21942863 -139.12695312 496.09570312 C-143.36162711 491.35763724 -147.97759787 486.96177625 -152.5 482.5 C-158.22906924 476.84773283 -163.89509328 471.21942863 -169.12695312 465.09570312 C-173.36162711 460.35763724 -177.97759787 455.96177625 -182.5 451.5 C-188.22906924 445.84773283 -193.89509328 440.21942863 -199.12695312 434.09570312 C-203.36162711 429.35763724 -207.97759787 424.96177625 -212.5 420.5 C-218.22906924 414.84773283 -223.89509328 409.21942863 -229.12695312 403.09570312 C-233.36162711 398.35763724 -237.97759787 393.96177625 -242.5 389.5 C-248.22906924 383.84773283 -253.89509328 378.21942863 -259.12695312 372.09570312 C-263.36162711 367.35763724 -267.97759787 362.96177625 -272.5 358.5 C-283.68785746 347.46212339 -283.68785746 347.46212339 -287.4921875 343.00390625 C-290.35352197 339.65365307 -293.40763156 336.52943588 -296.5390625 333.43359375 C-297.27893402 332.70198532 -297.27893402 332.70198532 -298.03375244 331.95559692 C-300.07880209 329.93814072 -302.12741106 327.92439062 -304.18066406 325.9152832 C-309.61451676 320.5904165 -314.86872861 315.43143341 -319 309 C-316.50434749 306.47483195 -314.00267549 303.95570627 -311.5 301.4375 C-310.80390625 300.73302734 -310.1078125 300.02855469 -309.390625 299.30273438 C-306.08122027 295.97800833 -302.75492897 292.73911985 -299.1875 289.69140625 C-293.66403086 284.93440671 -288.61588716 279.685401 -283.5 274.5 C-277.84773283 268.77093076 -272.21942863 263.10490672 -266.09570312 257.87304688 C-261.35763724 253.63837289 -256.96177625 249.02240213 -252.5 244.5 C-246.84773283 238.77093076 -241.21942863 233.10490672 -235.09570312 227.87304688 C-230.35763724 223.63837289 -225.96177625 219.02240213 -221.5 214.5 C-215.84773283 208.77093076 -210.21942863 203.10490672 -204.09570312 197.87304688 C-199.35763724 193.63837289 -194.96177625 189.02240213 -190.5 184.5 C-184.84773283 178.77093076 -179.21942863 173.10490672 -173.09570312 167.87304688 C-168.35763724 163.63837289 -163.96177625 159.02240213 -159.5 154.5 C-148.46210692 143.31212584 -148.46210692 143.31212584 -144.03125 139.53125 C-138.36901187 134.69366604 -133.22820892 129.295982 -128 124 C-122.17578649 118.10028743 -116.38944286 112.24095279 -110.078125 106.85546875 C-105.34434772 102.6288819 -100.95574442 98.01628834 -96.5 93.5 C-90.84773283 87.77093076 -85.21942863 82.10490672 -79.09570312 76.87304688 C-74.35763724 72.63837289 -69.96177625 68.02240213 -65.5 63.5 C-59.84773283 57.77093076 -54.21942863 52.10490672 -48.09570312 46.87304688 C-43.35763724 42.63837289 -38.96177625 38.02240213 -34.5 33.5 C-28.77774436 27.6999913 -23.08103313 21.95071962 -16.88085938 16.65380859 C-13.4293844 13.61898363 -10.22753259 10.33174027 -7 7.0625 C-5.98099609 6.03672852 -5.98099609 6.03672852 -4.94140625 4.99023438 C-3.29191641 3.32912841 -1.6448332 1.66571487 0 0 Z " fill="#00B050" transform="translate(466,153)"/>
<path d="M0 0 C2.65800899 1.12562882 3.69865697 2.08214802 5.4597168 4.34570312 C8.41292433 7.93174084 11.53336723 11.26891008 14.8347168 14.53320312 C15.32270752 15.01772949 15.81069824 15.50225586 16.31347656 16.00146484 C17.82885548 17.50378652 19.34695529 19.003305 20.8659668 20.50195312 C26.59503604 26.15422029 32.26106008 31.78252449 37.49291992 37.90625 C41.72759391 42.64431589 46.34356467 47.04017688 50.8659668 51.50195312 C56.59503604 57.15422029 62.26106008 62.78252449 67.49291992 68.90625 C71.72759391 73.64431589 76.34356467 78.04017688 80.8659668 82.50195312 C86.59503604 88.15422029 92.26106008 93.78252449 97.49291992 99.90625 C101.72759391 104.64431589 106.34356467 109.04017688 110.8659668 113.50195312 C116.66704017 119.22525915 122.41505473 124.92349615 127.7121582 131.12548828 C130.74043502 134.56146933 134.03446305 137.73461039 137.3034668 140.93945312 C138.64815224 142.25879106 139.99073034 143.58028156 141.33081055 144.90429688 C141.91467529 145.47656006 142.49854004 146.04882324 143.10009766 146.63842773 C144.3659668 148.00195312 144.3659668 148.00195312 144.3659668 149.00195312 C137.01216889 149.30523143 129.65974894 149.53514866 122.30093002 149.67551136 C118.88218822 149.74294167 115.46776721 149.83408401 112.05151367 149.98266602 C88.17992589 150.99300367 88.17992589 150.99300367 82.20898438 146.43041992 C79.54756492 143.81420637 77.5100096 140.88434078 75.53167725 137.73208618 C73.65241541 134.94290896 71.26688083 132.73889741 68.84643555 130.41992188 C67.96922852 129.55044922 67.09202148 128.68097656 66.18823242 127.78515625 C64.88402344 126.5002832 64.88402344 126.5002832 63.5534668 125.18945312 C53.72311003 115.50166861 53.72311003 115.50166861 49.94799805 111.08398438 C45.23758473 105.58792585 40.01485319 100.58181518 34.8659668 95.50195312 C29.12761313 89.840526 23.44755843 84.2042017 18.20727539 78.0703125 C14.15516658 73.51854031 9.75560251 69.29013213 5.4284668 65.00195312 C4.44841369 64.02692926 3.46859439 63.05167033 2.48901367 62.07617188 C0.11694367 59.71578694 -2.25744181 57.35778408 -4.6340332 55.00195312 C-7.85033461 56.52798727 -9.92172619 58.09996084 -12.3840332 60.68945312 C-14.87334397 63.29904571 -17.4411367 65.7130989 -20.1809082 68.05273438 C-25.78254041 72.91090797 -30.93010754 78.22731737 -36.1340332 83.50195312 C-41.78630037 89.23102237 -47.41460457 94.8970464 -53.53833008 100.12890625 C-58.27639596 104.36358023 -62.67225696 108.97955099 -67.1340332 113.50195312 C-69.12053616 115.51544836 -71.1106092 117.52532034 -73.1027832 119.53320312 C-73.97354492 120.41556641 -74.84430664 121.29792969 -75.74145508 122.20703125 C-77.90758191 124.35866425 -80.18613703 126.32289693 -82.52099609 128.28930664 C-85.42097954 130.78765229 -87.82962104 133.36370132 -90.20019531 136.36694336 C-95.71833102 143.13525688 -100.80262909 149.0178082 -109.78686523 150.37744141 C-116.61594308 150.87272798 -123.37419739 150.49439819 -130.1965332 150.06445312 C-132.57581683 149.97898639 -134.95539928 149.90145382 -137.33520508 149.83203125 C-143.10811242 149.64659662 -148.86963977 149.36392059 -154.6340332 149.00195312 C-151.13439118 144.84527942 -147.57792179 140.8184639 -143.7355957 136.97070312 C-142.84356445 136.07738281 -141.9515332 135.1840625 -141.0324707 134.26367188 C-140.11723633 133.35230469 -139.20200195 132.4409375 -138.2590332 131.50195312 C-137.3515332 130.59058594 -136.4440332 129.67921875 -135.5090332 128.74023438 C-131.67204852 124.90877849 -127.84509665 121.11751608 -123.7199707 117.59570312 C-118.04666868 112.72835766 -112.88186584 107.31781322 -107.6340332 102.00195312 C-101.80981969 96.10224055 -96.02347607 90.24290592 -89.7121582 84.85742188 C-84.97838093 80.63083502 -80.58977762 76.01824147 -76.1340332 71.50195312 C-70.48176604 65.77288388 -64.85346184 60.10685985 -58.72973633 54.875 C-53.99167044 50.64032602 -49.59580945 46.02435526 -45.1340332 41.50195312 C-34.09358028 30.31148434 -34.09358028 30.31148434 -29.64575195 26.53320312 C-26.23411024 23.62319618 -23.10823415 20.47631994 -19.99731445 17.25195312 C-19.25860611 16.49078186 -19.25860611 16.49078186 -18.50497437 15.7142334 C-16.46082977 13.60707285 -14.41802768 11.49939801 -12.3984375 9.36865234 C-10.90334025 7.79509034 -9.3900167 6.24118146 -7.87231445 4.68945312 C-6.98584229 3.76519531 -6.09937012 2.8409375 -5.18603516 1.88867188 C-2.6340332 0.00195312 -2.6340332 0.00195312 0 0 Z " fill="#019243" transform="translate(472.634033203125,81.998046875)"/>
<path d="M0 0 C0.22386432 5.53155345 0.38641927 11.06042792 0.49438477 16.59545898 C0.53941994 18.47450729 0.60067268 20.35324416 0.67895508 22.23120117 C1.30872974 37.73682951 1.30872974 37.73682951 -1.76220703 43.04736328 C-4.03836063 45.35089918 -6.33626211 47.16534297 -9 49 C-10.30586507 50.10848735 -11.59820774 51.23314654 -12.875 52.375 C-13.52597656 52.93445313 -14.17695313 53.49390625 -14.84765625 54.0703125 C-19.42567603 58.17474403 -23.68445232 62.62284355 -28 67 C-38.50584869 77.65583021 -38.50584869 77.65583021 -42.96875 81.46875 C-48.45082077 86.15809771 -53.43725106 91.36845926 -58.5 96.5 C-64.15226717 102.22906924 -69.78057137 107.89509328 -75.90429688 113.12695312 C-80.64236276 117.36162711 -85.03822375 121.97759787 -89.5 126.5 C-95.29324907 132.37196679 -101.06044398 138.20201486 -107.33789062 143.56494141 C-109.49332137 145.4259317 -111.50488176 147.40675465 -113.5 149.4375 C-114.1703125 150.11683594 -114.840625 150.79617188 -115.53125 151.49609375 C-116.0159375 151.99238281 -116.500625 152.48867188 -117 153 C-115.49158187 156.55480003 -113.42366339 158.79559622 -110.67578125 161.484375 C-109.37930664 162.76441406 -109.37930664 162.76441406 -108.05664062 164.0703125 C-107.15107422 164.95460938 -106.24550781 165.83890625 -105.3125 166.75 C-95.26329249 176.60187761 -95.26329249 176.60187761 -91.57421875 180.921875 C-86.86867771 186.41871124 -81.64700292 191.42199617 -76.5 196.5 C-70.77093076 202.15226717 -65.10490672 207.78057137 -59.87304688 213.90429688 C-55.63837289 218.64236276 -51.02240213 223.03822375 -46.5 227.5 C-35.31267615 238.53735015 -35.31267615 238.53735015 -31.5078125 242.9921875 C-26.79144526 248.51302819 -21.53966195 253.52889551 -16.375 258.625 C-14.33813796 260.63501075 -12.30480225 262.64849786 -10.2734375 264.6640625 C-9.38060059 265.54529785 -8.48776367 266.4265332 -7.56787109 267.33447266 C-6.2967749 268.65390869 -6.2967749 268.65390869 -5 270 C-4.07630615 270.85787109 -3.1526123 271.71574219 -2.20092773 272.59960938 C1.36375387 276.99101987 0.61625899 282.36352656 0.48828125 287.7421875 C0.47766914 289.42745041 0.47766914 289.42745041 0.46684265 291.14675903 C0.43892807 294.72352604 0.37619067 298.29870876 0.3125 301.875 C0.28741353 304.30466484 0.26460098 306.7343543 0.24414062 309.1640625 C0.18911092 315.10991253 0.1055124 321.05484306 0 327 C-4.03492073 323.64859871 -7.80798463 320.30303976 -11.2421875 316.3203125 C-16.29923825 310.59441909 -21.68654065 305.23552851 -27.125 299.875 C-37.64760914 289.50205208 -37.64760914 289.50205208 -41.4609375 285.0390625 C-46.15353354 279.55484348 -51.36578951 274.5653829 -56.5 269.5 C-62.22906924 263.84773283 -67.89509328 258.21942863 -73.12695312 252.09570312 C-77.36162711 247.35763724 -81.97759787 242.96177625 -86.5 238.5 C-92.22906924 232.84773283 -97.89509328 227.21942863 -103.12695312 221.09570312 C-107.36162711 216.35763724 -111.97759787 211.96177625 -116.5 207.5 C-127.68732385 196.46264985 -127.68732385 196.46264985 -131.4921875 192.0078125 C-136.20855474 186.48697181 -141.46033805 181.47110449 -146.625 176.375 C-148.66186204 174.36498925 -150.69519775 172.35150214 -152.7265625 170.3359375 C-153.61939941 169.45470215 -154.51223633 168.5734668 -155.43212891 167.66552734 C-158.11693632 164.87861659 -160.55824514 161.99987025 -163 159 C-161.69787216 156.09386963 -160.36838357 154.1596923 -158.0078125 152.03125 C-157.39486328 151.46986328 -156.78191406 150.90847656 -156.15039062 150.33007812 C-155.48201172 149.72615234 -154.81363281 149.12222656 -154.125 148.5 C-146.53653198 141.52927961 -139.23537528 134.30671628 -132.00439453 126.96679688 C-128.4709425 123.39684372 -124.94455106 119.88940648 -121.125 116.625 C-115.61706174 111.89684961 -110.59432877 106.66354967 -105.5 101.5 C-99.84773283 95.77093076 -94.21942863 90.10490672 -88.09570312 84.87304688 C-83.35763724 80.63837289 -78.96177625 76.02240213 -74.5 71.5 C-68.84773283 65.77093076 -63.21942863 60.10490672 -57.09570312 54.87304688 C-52.35763724 50.63837289 -47.96177625 46.02240213 -43.5 41.5 C-32.46219744 30.3122176 -32.46219744 30.3122176 -28.02734375 26.52734375 C-22.38811904 21.71089829 -17.26833864 16.33667595 -12.0625 11.0625 C-9.99372962 8.96721097 -7.92170002 6.87522387 -5.84765625 4.78515625 C-4.94023682 3.86613525 -4.03281738 2.94711426 -3.09790039 2.00024414 C-1 0 -1 0 0 0 Z " fill="#017535" transform="translate(182,305)"/>
<path d="M0 0 C4.07476317 3.43431542 8.03882465 6.9116373 11.8125 10.6796875 C13.08480469 11.95005859 13.08480469 11.95005859 14.3828125 13.24609375 C15.67832031 14.54740234 15.67832031 14.54740234 17 15.875 C17.86367188 16.73480469 18.72734375 17.59460938 19.6171875 18.48046875 C23.32029474 22.18920381 26.97116374 25.89587354 30.375 29.8828125 C35.25538285 35.56468679 40.6734494 40.74161367 46 46 C51.89971257 51.82421351 57.75904721 57.61055714 63.14453125 63.921875 C67.3711181 68.65565228 71.98371166 73.04425558 76.5 77.5 C82.22906924 83.15226717 87.89509328 88.78057137 93.12695312 94.90429688 C97.36162711 99.64236276 101.97759787 104.03822375 106.5 108.5 C112.22906924 114.15226717 117.89509328 119.78057137 123.12695312 125.90429688 C127.36162711 130.64236276 131.97759787 135.03822375 136.5 139.5 C142.38224892 145.30339336 148.22383801 151.0806596 153.59619141 157.36914062 C155.29075098 159.33777679 157.08234349 161.18270383 158.9375 163 C159.52402344 163.5775 160.11054687 164.155 160.71484375 164.75 C161.13894531 165.1625 161.56304688 165.575 162 166 C160.46870192 169.77263941 158.23469103 171.78265116 155.1875 174.4375 C148.01012887 180.81078626 141.3008776 187.64243588 134.56323242 194.47436523 C130.82867307 198.24455503 127.11400016 201.9731866 123.078125 205.421875 C117.58314447 210.13067192 112.5785463 215.35244725 107.5 220.5 C101.84773283 226.22906924 96.21942863 231.89509328 90.09570312 237.12695312 C85.35763724 241.36162711 80.96177625 245.97759787 76.5 250.5 C70.84773283 256.22906924 65.21942863 261.89509328 59.09570312 267.12695312 C54.35763724 271.36162711 49.96177625 275.97759787 45.5 280.5 C34.46176339 291.68822235 34.46176339 291.68822235 30.01953125 295.4765625 C26.61315427 298.38531984 23.44084006 301.49652686 20.29296875 304.6796875 C19.79576324 305.18240173 19.29855774 305.68511597 18.7862854 306.20306396 C16.72474295 308.29232011 14.66703768 310.38527205 12.61352539 312.48242188 C11.09435396 314.03169703 9.56909669 315.57476897 8.04296875 317.1171875 C7.14602295 318.03097168 6.24907715 318.94475586 5.32495117 319.88623047 C3 322 3 322 0 323 C-0.32503581 317.68441436 -0.55882385 312.37476832 -0.71411133 307.05151367 C-0.77890456 305.24775359 -0.86719143 303.44466045 -0.98071289 301.64331055 C-1.94466243 285.93660331 -1.94466243 285.93660331 2.67041016 280.07568359 C5.82150345 276.68304369 9.34392074 273.82527647 13 271 C14.37234041 269.81097779 15.7384718 268.61468412 17.09375 267.40625 C17.70863281 266.88289063 18.32351563 266.35953125 18.95703125 265.8203125 C23.68230118 261.61003374 28.05634132 257.00403838 32.5 252.5 C38.15226717 246.77093076 43.78057137 241.10490672 49.90429688 235.87304688 C54.64236276 231.63837289 59.03822375 227.02240213 63.5 222.5 C69.15226717 216.77093076 74.78057137 211.10490672 80.90429688 205.87304688 C85.64236276 201.63837289 90.03822375 197.02240213 94.5 192.5 C96.48650227 190.48650546 98.47534336 188.47541067 100.46875 186.46875 C100.94570313 185.98857422 101.42265625 185.50839844 101.9140625 185.01367188 C105.25903894 181.67332837 108.71948274 178.52977682 112.36132812 175.51757812 C114.1793492 173.83390426 115.56970999 172.01808042 117 170 C116.40251953 169.74025391 115.80503906 169.48050781 115.18945312 169.21289062 C112.8285864 167.90504206 111.66058456 166.67852678 109.96875 164.59375 C106.97431024 161.05660794 103.82018818 157.73064825 100.53125 154.46875 C100.04333984 153.98414307 99.55542969 153.49953613 99.05273438 153.00024414 C97.53711105 151.49817076 96.0190107 149.99864732 94.5 148.5 C88.77093076 142.84773283 83.10490672 137.21942863 77.87304688 131.09570312 C73.63837289 126.35763724 69.02240213 121.96177625 64.5 117.5 C58.77093076 111.84773283 53.10490672 106.21942863 47.87304688 100.09570312 C43.63837289 95.35763724 39.02240213 90.96177625 34.5 86.5 C32.48650477 84.51349704 30.47663278 82.523424 28.46875 80.53125 C27.14520508 79.22510742 27.14520508 79.22510742 25.79492188 77.89257812 C23.63330129 75.71637564 21.6586443 73.42653859 19.68164062 71.08203125 C17.25607196 68.26651787 14.78473077 65.92936607 11.8515625 63.65039062 C5.2921551 58.38075434 -0.04935314 53.57987435 -1.29296875 44.9296875 C-1.7627176 38.09720822 -1.40341829 31.32671276 -1 24.5 C-0.9195755 22.11612687 -0.84660107 19.73199021 -0.78125 17.34765625 C-0.60658519 11.5592646 -0.34039298 5.78089162 0 0 Z " fill="#017535" transform="translate(751,301)"/>
<path d="M0 0 C4.17258919 1.63687603 6.96425073 4.69330968 10.05078125 7.8203125 C10.91632881 8.68654739 10.91632881 8.68654739 11.79936218 9.57028198 C13.01957662 10.79351367 14.23736351 12.01917105 15.45288086 13.24707031 C17.2904276 15.10271027 19.13568538 16.95038537 20.98242188 18.796875 C26.22901239 24.05976232 31.38235371 29.32877927 36.20385742 34.98779297 C40.40967065 39.6995386 45.00522756 44.06548304 49.5 48.5 C55.22906924 54.15226717 60.89509328 59.78057137 66.12695312 65.90429688 C70.36162711 70.64236276 74.97759787 75.03822375 79.5 79.5 C85.22906924 85.15226717 90.89509328 90.78057137 96.12695312 96.90429688 C100.36162711 101.64236276 104.97759787 106.03822375 109.5 110.5 C115.22906924 116.15226717 120.89509328 121.78057137 126.12695312 127.90429688 C130.36162711 132.64236276 134.97759787 137.03822375 139.5 141.5 C153.75751251 155.56638083 153.75751251 155.56638083 158 161 C158 161.33 158 161.66 158 162 C111.71120042 165.80538631 111.71120042 165.80538631 101.31640625 157.60546875 C96.71396502 153.56283439 93.0744753 148.67683017 89.71191406 143.58398438 C84.1987823 135.26239474 76.57393428 128.47910337 69.5 121.5 C63.77093076 115.84773283 58.10490672 110.21942863 52.87304688 104.09570312 C48.63837289 99.35763724 44.02240213 94.96177625 39.5 90.5 C28.31230933 79.46228795 28.31230933 79.46228795 24.5234375 75.0234375 C19.72700497 69.40789082 14.37727292 64.30889243 9.125 59.125 C7.04139745 57.06798047 4.96113977 55.00766016 2.8828125 52.9453125 C1.51213623 51.59203857 1.51213623 51.59203857 0.11376953 50.21142578 C-2 48 -2 48 -3 46 C-6.76086974 46.56654801 -8.43430723 48.09195959 -11.046875 50.7890625 C-12.1915625 51.95501953 -12.1915625 51.95501953 -13.359375 53.14453125 C-14.54273438 54.37236328 -14.54273438 54.37236328 -15.75 55.625 C-24.62992306 64.75652088 -24.62992306 64.75652088 -28.859375 68.3671875 C-34.37531484 73.09533166 -39.40148991 78.3322122 -44.5 83.5 C-50.15226717 89.22906924 -55.78057137 94.89509328 -61.90429688 100.12695312 C-66.64236276 104.36162711 -71.03822375 108.97759787 -75.5 113.5 C-81.15226717 119.22906924 -86.78057137 124.89509328 -92.90429688 130.12695312 C-97.64236276 134.36162711 -102.03822375 138.97759787 -106.5 143.5 C-107.50359628 144.51723299 -108.50750103 145.53416175 -109.51171875 146.55078125 C-110.00144165 147.0467128 -110.49116455 147.54264435 -110.99572754 148.05360413 C-112.4478717 149.51030617 -113.91888766 150.94575952 -115.39257812 152.38061523 C-117.95754814 154.85579108 -117.95754814 154.85579108 -119.77929688 157.26196289 C-122.91851135 160.91467372 -125.62592632 162.12400455 -130.36523438 162.53271484 C-135.75028783 162.77430502 -141.1153257 162.61127472 -146.5 162.4375 C-148.39056742 162.40235151 -150.28119751 162.37041872 -152.171875 162.34179688 C-156.78280806 162.26502541 -161.39071054 162.1444371 -166 162 C-162.63120057 158.00715114 -159.23274556 154.1057709 -155.5390625 150.40625 C-154.73726563 149.60316406 -153.93546875 148.80007812 -153.109375 147.97265625 C-151.87960937 146.74869141 -151.87960937 146.74869141 -150.625 145.5 C-149.40683594 144.27603516 -149.40683594 144.27603516 -148.1640625 143.02734375 C-144.57328535 139.44232105 -140.97499696 135.92264524 -137.1171875 132.625 C-131.61509391 127.89361166 -126.59278213 122.66198202 -121.5 117.5 C-115.84773283 111.77093076 -110.21942863 106.10490672 -104.09570312 100.87304688 C-99.35763724 96.63837289 -94.96177625 92.02240213 -90.5 87.5 C-84.84773283 81.77093076 -79.21942863 76.10490672 -73.09570312 70.87304688 C-68.35763724 66.63837289 -63.96177625 62.02240213 -59.5 57.5 C-53.84773283 51.77093076 -48.21942863 46.10490672 -42.09570312 40.87304688 C-37.35763724 36.63837289 -32.96177625 32.02240213 -28.5 27.5 C-22.71689462 21.63831474 -16.95977055 15.81980735 -10.69335938 10.46630859 C-8.35159172 8.43853228 -6.17261021 6.26905724 -4 4.0625 C-2.8553125 2.90427734 -2.8553125 2.90427734 -1.6875 1.72265625 C-1.130625 1.15417969 -0.57375 0.58570312 0 0 Z " fill="#017435" transform="translate(477,19)"/>
<path d="M0 0 C6.9368578 -0.25495077 13.87249621 -0.42923869 20.81298828 -0.54931641 C23.17021828 -0.59940148 25.52714077 -0.66749371 27.88330078 -0.75439453 C48.50143895 -1.49542698 48.50143895 -1.49542698 53.58691406 1.98925781 C56.13466392 4.50997584 58.05315176 6.99885856 60 10 C61.11340132 11.3209578 62.24786657 12.62455587 63.40625 13.90625 C63.95667969 14.54820312 64.50710938 15.19015625 65.07421875 15.8515625 C69.33290147 20.60262842 73.95929788 25.02016908 78.5 29.5 C84.22906924 35.15226717 89.89509328 40.78057137 95.12695312 46.90429688 C99.36162711 51.64236276 103.97759787 56.03822375 108.5 60.5 C114.22906924 66.15226717 119.89509328 71.78057137 125.12695312 77.90429688 C129.36162711 82.64236276 133.97759787 87.03822375 138.5 91.5 C140.51349454 93.48650227 142.52459151 95.47534115 144.53125 97.46875 C145.01287598 97.94715332 145.49450195 98.42555664 145.99072266 98.91845703 C149.26546793 102.19773326 152.34869315 105.58345404 155.28710938 109.16601562 C157.6613356 111.70808909 160.29970944 113.80777805 163 116 C163.68513672 115.30962646 164.37027344 114.61925293 165.07617188 113.90795898 C167.65295983 111.31287873 170.23321362 108.72126708 172.81445312 106.13061523 C173.92475584 105.0153271 175.03415429 103.89913789 176.14257812 102.78198242 C181.59529701 97.28743312 187.04651471 91.86763511 192.93945312 86.84008789 C197.66695001 82.61838836 202.04982082 78.01064749 206.5 73.5 C212.15226717 67.77093076 217.78057137 62.10490672 223.90429688 56.87304688 C228.64236276 52.63837289 233.03822375 48.02240213 237.5 43.5 C248.53762155 32.31240106 248.53762155 32.31240106 252.98046875 28.51953125 C258.572338 23.74311302 263.6505541 18.41786999 268.8125 13.1875 C270.85776815 11.11558341 272.90637956 9.04705557 274.95703125 6.98046875 C275.85397705 6.07192139 276.75092285 5.16337402 277.67504883 4.22729492 C280.78705442 1.24600468 282.72587602 -0.25409542 287.01245117 -0.22705078 C288.2133564 -0.22682419 288.2133564 -0.22682419 289.43852234 -0.22659302 C290.29798965 -0.21627045 291.15745697 -0.20594788 292.04296875 -0.1953125 C292.9265657 -0.1924826 293.81016266 -0.18965271 294.72053528 -0.18673706 C297.54299454 -0.17554097 300.36513662 -0.15043751 303.1875 -0.125 C305.10090688 -0.11496946 307.01431873 -0.10584374 308.92773438 -0.09765625 C313.61861182 -0.07560351 318.30925213 -0.04107762 323 0 C316.76027824 7.36562263 316.76027824 7.36562263 313.4140625 10.71875 C312.79273438 11.34136719 312.17140625 11.96398437 311.53125 12.60546875 C310.9021875 13.23066406 310.273125 13.85585938 309.625 14.5 C309.00367188 15.12519531 308.38234375 15.75039063 307.7421875 16.39453125 C304.66538886 19.46497287 301.54661779 22.4253818 298.2421875 25.25 C292.70525365 30.0324476 287.63479386 35.2954354 282.5 40.5 C276.84773283 46.22906924 271.21942863 51.89509328 265.09570312 57.12695312 C260.35763724 61.36162711 255.96177625 65.97759787 251.5 70.5 C245.84773283 76.22906924 240.21942863 81.89509328 234.09570312 87.12695312 C229.35763724 91.36162711 224.96177625 95.97759787 220.5 100.5 C214.84773283 106.22906924 209.21942863 111.89509328 203.09570312 117.12695312 C198.35763724 121.36162711 193.96177625 125.97759787 189.5 130.5 C183.75746348 136.32056516 178.04061715 142.09291363 171.81835938 147.40869141 C168.7353052 150.10677775 165.87382947 153.02012766 163 155.9375 C162.12408203 156.82018555 162.12408203 156.82018555 161.23046875 157.72070312 C159.81795195 159.14479793 158.4086219 160.5720525 157 162 C152.2104587 158.16836696 148.13109652 154.016328 144.04272461 149.44921875 C138.1188502 142.9114459 131.80442981 136.75570845 125.52490234 130.56225586 C121.75481272 126.82815505 118.02655541 123.11369824 114.578125 119.078125 C109.86932808 113.58314447 104.64755275 108.5785463 99.5 103.5 C93.77093076 97.84773283 88.10490672 92.21942863 82.87304688 86.09570312 C78.63837289 81.35763724 74.02240213 76.96177625 69.5 72.5 C58.31212584 61.46210692 58.31212584 61.46210692 54.53125 57.03125 C49.69366604 51.36901187 44.295982 46.22820892 39 41 C27.18245852 29.33368849 27.18245852 29.33368849 21.79248047 23.01513672 C17.92483972 18.66706988 13.70543285 14.64577938 9.5625 10.5625 C7.74906068 8.77440574 5.93773299 6.98416643 4.12890625 5.19140625 C3.33556885 4.40967041 2.54223145 3.62793457 1.72485352 2.82250977 C0 1 0 1 0 0 Z " fill="#017535" transform="translate(297,751)"/>
<path d="M0 0 C0.33 0 0.66 0 1 0 C5.16817911 45.9305147 5.16817911 45.9305147 -3.83984375 57.12890625 C-9.09451978 63.04548388 -15.50398832 67.54801173 -22 72 C-29.03097215 77.57128819 -35.21010532 84.12463927 -41.5 90.5 C-47.15226717 96.22906924 -52.78057137 101.89509328 -58.90429688 107.12695312 C-63.64236276 111.36162711 -68.03822375 115.97759787 -72.5 120.5 C-78.29324907 126.37196679 -84.06044398 132.20201486 -90.33789062 137.56494141 C-92.49332137 139.4259317 -94.50488176 141.40675465 -96.5 143.4375 C-97.1703125 144.11683594 -97.840625 144.79617188 -98.53125 145.49609375 C-99.0159375 145.99238281 -99.500625 146.48867188 -100 147 C-94.99100226 153.00923442 -89.59058141 158.4765562 -84.00976562 163.95117188 C-80.78683416 167.13702264 -77.65919279 170.33873868 -74.71484375 173.78515625 C-69.94985417 179.31806017 -64.69417114 184.37546026 -59.5 189.5 C-53.77093076 195.15226717 -48.10490672 200.78057137 -42.87304688 206.90429688 C-38.63837289 211.64236276 -34.02240213 216.03822375 -29.5 220.5 C-17.38690163 232.45071403 -17.38690163 232.45071403 -12.94824219 237.91894531 C-10.94053827 240.18100626 -10.94053827 240.18100626 -7.93457031 242.32324219 C-2.51069109 246.5662555 1.09534379 250.20574883 1.96289062 257.27148438 C2.32587645 263.4448196 2.05020279 269.5797942 1.75 275.75 C1.68971153 277.91130936 1.63497547 280.07278111 1.5859375 282.234375 C1.4546556 287.49316761 1.25472851 292.7458154 1 298 C-2.91092994 294.69690357 -6.74969649 291.37703911 -10.375 287.7578125 C-11.13296875 287.00113281 -11.8909375 286.24445313 -12.671875 285.46484375 C-13.44015625 284.69269531 -14.2084375 283.92054688 -15 283.125 C-16.15242188 281.97837891 -16.15242188 281.97837891 -17.328125 280.80859375 C-20.78464252 277.3461978 -24.16426798 273.8680116 -27.34375 270.1484375 C-32.08796153 264.63766414 -37.32736351 259.60329378 -42.5 254.5 C-48.22906924 248.84773283 -53.89509328 243.21942863 -59.12695312 237.09570312 C-63.36162711 232.35763724 -67.97759787 227.96177625 -72.5 223.5 C-78.22906924 217.84773283 -83.89509328 212.21942863 -89.12695312 206.09570312 C-93.36162711 201.35763724 -97.97759787 196.96177625 -102.5 192.5 C-113.68741553 181.46255939 -113.68741553 181.46255939 -117.48828125 177.01171875 C-122.22466683 171.4672025 -127.5009355 166.43055193 -132.6875 161.3125 C-134.73604633 159.29073623 -136.78111319 157.26554143 -138.82421875 155.23828125 C-139.72229248 154.35180908 -140.62036621 153.46533691 -141.5456543 152.55200195 C-143.86646301 150.13885031 -145.9557988 147.64909661 -148 145 C-146.33392729 140.66610201 -143.12471393 137.86704965 -139.875 134.6875 C-139.05902344 133.87249023 -139.05902344 133.87249023 -138.2265625 133.04101562 C-135.33527325 130.18012544 -132.38071364 127.44384921 -129.2890625 124.80078125 C-123.74076597 119.99621526 -118.6510592 114.72105094 -113.5 109.5 C-107.84773283 103.77093076 -102.21942863 98.10490672 -96.09570312 92.87304688 C-91.35763724 88.63837289 -86.96177625 84.02240213 -82.5 79.5 C-76.84773283 73.77093076 -71.21942863 68.10490672 -65.09570312 62.87304688 C-60.35763724 58.63837289 -55.96177625 54.02240213 -51.5 49.5 C-45.84773283 43.77093076 -40.21942863 38.10490672 -34.09570312 32.87304688 C-29.35763724 28.63837289 -24.96177625 24.02240213 -20.5 19.5 C-14.1869473 13.10116657 -7.86080336 6.82100637 -1 1 C-0.67 0.67 -0.34 0.34 0 0 Z " fill="#019243" transform="translate(230,315)"/>
<path d="M0 0 C1.12610812 0.96121607 2.25165098 1.92309439 3.37695312 2.88525391 C4.00380005 3.42082916 4.63064697 3.95640442 5.27648926 4.50820923 C9.52673439 8.18702382 13.36992243 12.22140394 17 16.5078125 C21.88285206 22.11534181 27.21051975 27.28142884 32.5 32.5 C38.22906924 38.15226717 43.89509328 43.78057137 49.12695312 49.90429688 C53.36162711 54.64236276 57.97759787 59.03822375 62.5 63.5 C68.22906924 69.15226717 73.89509328 74.78057137 79.12695312 80.90429688 C83.36162711 85.64236276 87.97759787 90.03822375 92.5 94.5 C98.22906924 100.15226717 103.89509328 105.78057137 109.12695312 111.90429688 C113.36162711 116.64236276 117.97759787 121.03822375 122.5 125.5 C128.38224892 131.30339336 134.22383801 137.0806596 139.59619141 143.36914062 C141.29075098 145.33777679 143.08234349 147.18270383 144.9375 149 C145.52402344 149.5775 146.11054687 150.155 146.71484375 150.75 C147.13894531 151.1625 147.56304688 151.575 148 152 C146.51556158 155.46108537 144.55369767 157.68513626 141.875 160.3125 C141.15054688 161.03050781 140.42609375 161.74851562 139.6796875 162.48828125 C137.62636454 164.41289738 135.55111909 166.24723842 133.4140625 168.07421875 C127.83046408 172.92898174 122.69295064 178.2364884 117.5 183.5 C111.84773283 189.22906924 106.21942863 194.89509328 100.09570312 200.12695312 C95.35763724 204.36162711 90.96177625 208.97759787 86.5 213.5 C80.84773283 219.22906924 75.21942863 224.89509328 69.09570312 230.12695312 C64.35763724 234.36162711 59.96177625 238.97759787 55.5 243.5 C49.84773283 249.22906924 44.21942863 254.89509328 38.09570312 260.12695312 C33.35763724 264.36162711 28.96177625 268.97759787 24.5 273.5 C16.66194921 281.44455294 8.7437128 289.04255643 0 296 C-3.46925116 263.34634064 -3.46925116 263.34634064 4.171875 253.40234375 C8.97548558 248.31265308 14.37274225 244.12996584 20 240 C26.97680358 234.34263506 33.20085297 227.8847388 39.5 221.5 C45.15226717 215.77093076 50.78057137 210.10490672 56.90429688 204.87304688 C61.64236276 200.63837289 66.03822375 196.02240213 70.5 191.5 C76.28310538 185.63831474 82.04022945 179.81980735 88.30664062 174.46630859 C90.64840828 172.43853228 92.82738979 170.26905724 95 168.0625 C96.1446875 166.90427734 96.1446875 166.90427734 97.3125 165.72265625 C97.869375 165.15417969 98.42625 164.58570313 99 164 C97.41456111 160.23568978 94.94741028 157.50255741 92.1875 154.5625 C91.4291687 153.74616089 91.4291687 153.74616089 90.65551758 152.91333008 C84.42941162 146.28350499 77.949247 139.89845376 71.4753418 133.51196289 C67.72250899 129.79620028 64.01416729 126.09836066 60.58203125 122.08203125 C55.87161793 116.58597272 50.64888639 111.57986206 45.5 106.5 C34.31258447 95.46255939 34.31258447 95.46255939 30.51171875 91.01171875 C25.77533317 85.4672025 20.4990645 80.43055193 15.3125 75.3125 C13.26395367 73.29073623 11.21888681 71.26554143 9.17578125 69.23828125 C8.27770752 68.35180908 7.37963379 67.46533691 6.4543457 66.55200195 C-0.50803082 59.31259861 -0.50803082 59.31259861 -0.45410156 53.01635742 C-0.45379944 51.83551071 -0.45349731 50.654664 -0.45318604 49.43803406 C-0.43254089 48.17328751 -0.41189575 46.90854095 -0.390625 45.60546875 C-0.38496521 44.30297684 -0.37930542 43.00048492 -0.37347412 41.65852356 C-0.35825289 38.20753899 -0.31900316 34.75723538 -0.2746582 31.30651855 C-0.23362858 27.78061127 -0.21544682 24.25459319 -0.1953125 20.72851562 C-0.15250415 13.81873193 -0.08429651 6.90939872 0 0 Z " fill="#019243" transform="translate(702,319)"/>
<path d="M0 0 C41.69046274 -3.46975682 41.69046274 -3.46975682 52.1953125 4.171875 C56.50204524 8.18513877 60.03572615 12.63283439 63.31738281 17.50976562 C68.89150227 25.75933302 76.44238293 32.53699509 83.5 39.5 C89.22906924 45.15226717 94.89509328 50.78057137 100.12695312 56.90429688 C104.36162711 61.64236276 108.97759787 66.03822375 113.5 70.5 C125.44078024 82.28070595 125.44078024 82.28070595 130.58618164 88.41015625 C132.50607217 90.56907994 134.66864411 92.30446844 137 94 C137.556875 93.43152344 138.11375 92.86304688 138.6875 92.27734375 C139.450625 91.50519531 140.21375 90.73304688 141 89.9375 C142.11375 88.80634766 142.11375 88.80634766 143.25 87.65234375 C145.32389483 85.65209576 147.40705063 83.77828971 149.59375 81.91015625 C155.17863026 77.06464393 160.31072168 71.75978938 165.5 66.5 C171.15226717 60.77093076 176.78057137 55.10490672 182.90429688 49.87304688 C187.64236276 45.63837289 192.03822375 41.02240213 196.5 36.5 C198.48650239 34.48650534 200.47555621 32.47562189 202.46875 30.46875 C202.94869415 29.9846315 203.42863831 29.500513 203.92312622 29.00172424 C206.60574517 26.31855651 209.3573115 23.79650856 212.2734375 21.37109375 C215.13822025 18.94732717 217.22167511 16.44477831 219.3828125 13.37890625 C223.84330628 7.4174132 228.54202327 1.23851018 236.17089844 -0.49261475 C247.97441081 -2.12784754 260.18234794 -1.05402141 272 0 C268.36886159 4.39378881 264.64070388 8.38745921 260.375 12.1875 C253.38321329 18.50053349 246.76650973 25.17330815 240.15576172 31.8815918 C236.56837431 35.50570162 232.99122967 39.07283555 229.11328125 42.38671875 C223.60858685 47.11003956 218.5903845 52.34044819 213.5 57.5 C207.84773283 63.22906924 202.21942863 68.89509328 196.09570312 74.12695312 C191.35763724 78.36162711 186.96177625 82.97759787 182.5 87.5 C176.84773283 93.22906924 171.21942863 98.89509328 165.09570312 104.12695312 C160.35763724 108.36162711 155.96177625 112.97759787 151.5 117.5 C145.19077469 123.89495403 138.89556361 130.22534078 132 136 C125.50474837 130.58729031 119.46642188 124.89248762 113.96875 118.4609375 C109.09833389 112.86229553 103.77888181 107.7081148 98.5 102.5 C92.7606579 96.8375977 87.08310033 91.19923208 81.84179688 85.06445312 C77.77683849 80.50807878 73.34695803 76.2857743 69 72 C58.34416979 61.49415131 58.34416979 61.49415131 54.53125 57.03125 C49.84190229 51.54917923 44.63154074 46.56274894 39.5 41.5 C33.76057372 35.83751464 28.0817919 30.19966455 22.84130859 24.06396484 C18.79533752 19.52874349 14.38935078 15.32761213 10.0625 11.0625 C8.15469053 9.18121858 6.25027523 7.29670807 4.34765625 5.41015625 C3.51242432 4.58652588 2.67719238 3.76289551 1.81665039 2.91430664 C0 1 0 1 0 0 Z " fill="#029243" transform="translate(328,714)"/>
<path d="M0 0 C0.33 0 0.66 0 1 0 C1 56.1 1 112.2 1 170 C-57.08 170 -115.16 170 -175 170 C-170.66038785 164.93711916 -166.83254432 160.88669842 -161.840271 156.67315674 C-158.92482701 154.09161153 -158.92482701 154.09161153 -156.76031494 150.94622803 C-153.4125884 146.46405753 -149.98379388 142.77359187 -144.41954041 141.33097839 C-136.68347322 140.28923918 -128.89157687 140.62405462 -121.109375 140.828125 C-118.59307926 140.85053503 -116.0767308 140.86760308 -113.56036377 140.87957764 C-107.64144914 140.92052728 -101.72531833 141.01483074 -95.80753827 141.13577151 C-88.39951997 141.28383431 -80.99115355 141.34767415 -73.58203125 141.4140625 C-60.38665273 141.5423643 -47.19349872 141.74455193 -34 142 C-34.01843586 141.45667904 -34.03687172 140.91335808 -34.05586624 140.35357285 C-34.50057155 127.03747734 -34.8286394 113.72270682 -35.03624344 100.40073776 C-35.14006995 93.95719004 -35.28051786 87.51904867 -35.50878906 81.07861328 C-37.14762218 33.61930508 -37.14762218 33.61930508 -27.14666748 22.38555908 C-23.78576079 19.38526308 -20.36914356 16.84855196 -16.50158691 14.54089355 C-11.25255412 11.30766558 -6.88100193 6.92715508 -2.5625 2.5625 C-1.716875 1.716875 -0.87125 0.87125 0 0 Z " fill="#007434" transform="translate(785,609)"/>
<path d="M0 0 C57.42 0 114.84 0 174 0 C171.525 2.475 171.525 2.475 169 5 C167.79547201 6.80206614 166.62361863 8.62632143 165.48217773 10.46899414 C158.92100194 19.65866588 151.78400874 27.24939007 140.21563721 29.23162842 C124.58310132 31.10470742 108.65337589 30.21009762 92.96533203 29.57928467 C86.42327439 29.34162046 79.87913778 29.23846244 73.33398438 29.12304688 C60.55071977 28.87825888 47.77603329 28.4917152 35 28 C35.0377504 29.30275375 35.07550079 30.60550751 35.11439514 31.94773865 C35.46059232 44.28836603 35.71458347 56.62799606 35.88080692 68.9723959 C35.96914794 75.31773786 36.08872262 81.65912925 36.2824707 88.00219727 C36.46864334 94.13638964 36.56911896 100.26681071 36.61291313 106.40361214 C36.64407334 108.73188698 36.704929 111.05997926 36.79741096 113.38662529 C37.52510115 132.47130633 37.52510115 132.47130633 31.3835144 140.08840942 C27.26578622 144.50028755 22.71974473 148.25852185 18 152 C16.52980996 153.25557167 15.06733885 154.52025188 13.61366272 155.79490662 C12.98293382 156.34731238 12.35220491 156.89971815 11.70236301 157.46886349 C9.39939354 159.54019646 7.22172101 161.71756275 5.0625 163.9375 C3.72678621 165.30987145 2.37807563 166.67017209 1 168 C0.67 168 0.34 168 0 168 C0 112.56 0 57.12 0 0 Z " fill="#007434" transform="translate(147,153)"/>
<path d="M0 0 C0.33 0 0.66 0 1 0 C0.99962297 0.59561234 0.99924595 1.19122467 0.9988575 1.80488586 C0.9917299 16.32015048 1.01773228 30.83509684 1.0802784 45.35021973 C1.10973309 52.36978909 1.12811328 59.38905655 1.12011719 66.40869141 C1.11243017 73.18462702 1.13600892 79.95988337 1.17855453 86.73568726 C1.18968608 89.31917979 1.19038559 91.90273926 1.18042374 94.48623657 C1.16824718 98.10874183 1.19334408 101.72923336 1.22705078 105.3515625 C1.21482986 106.4168367 1.20260895 107.4821109 1.1900177 108.57966614 C1.3088261 115.6776873 2.87045958 120.000531 8 125 C11.61979186 128.04601924 13.68891483 128.35944291 18.453125 128.3359375 C19.71253906 128.34882813 20.97195313 128.36171875 22.26953125 128.375 C24.90756365 128.375 27.54560817 128.36728039 30.18359375 128.3515625 C42.4080629 128.50109729 47.35796083 131.98487852 55.74609375 140.48242188 C56.86177734 141.63581055 56.86177734 141.63581055 58 142.8125 C58.77472656 143.60076172 59.54945313 144.38902344 60.34765625 145.20117188 C62.23885927 147.12739717 64.12264049 149.0602963 66 151 C66.66 150.67 67.32 150.34 68 150 C68.28552723 145.28836415 67.55201211 142.35995051 65.4453125 138.15625 C64.91292969 137.07472656 64.38054687 135.99320313 63.83203125 134.87890625 C63.26871094 133.76386719 62.70539063 132.64882813 62.125 131.5 C61.02026 129.2828304 59.91859192 127.06412695 58.8203125 124.84375 C58.08192139 123.37711914 58.08192139 123.37711914 57.32861328 121.88085938 C54.80214429 116.40266494 52.88967232 111.08297857 54 105 C56.87078382 98.83283588 61.46494405 94.15285494 66.3125 89.5 C67.28026367 88.55253906 67.28026367 88.55253906 68.26757812 87.5859375 C69.83832328 86.0500978 71.41565886 84.5217887 73 83 C74.26784792 85.53569585 73.92998042 87.05257973 73.75 89.875 C73.73220859 96.76916957 75.98883935 101.91821781 79 108 C79.40202637 108.81936035 79.80405273 109.6387207 80.21826172 110.48291016 C83.10217536 116.34424138 86.03729537 122.17814159 89 128 C95.27 128 101.54 128 108 128 C107.01 126.02 106.02 124.04 105 122 C104.26663862 116.23787485 105.69038659 112.60285366 109 108 C112.11896433 104.4868173 115.44778351 101.20287715 118.796875 97.91015625 C119.75588561 96.95675063 120.71422881 96.00267325 121.67193604 95.04795837 C124.17729779 92.55397436 126.69153965 90.06913776 129.20782471 87.58618164 C131.78075918 85.04410161 134.34507413 82.49335828 136.91015625 79.94335938 C141.93176386 74.95379086 146.96281656 69.97384764 152 65 C153.27738055 67.55476109 152.72478274 68.29414444 152 71 C150.52547221 83.80732708 156.97123559 94.29005188 162.66796875 105.34765625 C163.18885574 106.36677597 163.70974274 107.38589569 164.24641418 108.43589783 C165.33590577 110.56536469 166.42753513 112.69373908 167.52124023 114.82104492 C169.19816772 118.08325242 170.86815873 121.34893985 172.53710938 124.61523438 C173.60116362 126.69291266 174.66560278 128.77039387 175.73046875 130.84765625 C176.22943161 131.82259537 176.72839447 132.79753448 177.24247742 133.80201721 C177.70668594 134.70403366 178.17089447 135.60605011 178.64916992 136.53540039 C179.25942268 137.72354088 179.25942268 137.72354088 179.88200378 138.9356842 C181.06913849 141.20285127 181.06913849 141.20285127 183 144 C183 144.99 183 145.98 183 147 C181.84393753 146.96589523 180.68787506 146.93179047 179.4967804 146.89665222 C168.51075632 146.58668765 157.52762063 146.39127589 146.5375185 146.30309582 C140.88869407 146.2542205 135.24617445 146.16743016 129.59985352 145.98852539 C102.00890416 143.84557737 102.00890416 143.84557737 77.70838833 154.19950199 C73.71557759 158.06953292 70.3673253 162.41927191 67.37223816 167.10102844 C66.91939957 167.72768906 66.46656097 168.35434967 66 169 C65.34 169 64.68 169 64 169 C64 169.66 64 170.32 64 171 C63.34 171 62.68 171 62 171 C61.67128906 170.23816406 61.34257813 169.47632813 61.00390625 168.69140625 C57.37416279 160.81220704 52.87334209 152.77979489 44.69917297 148.91104126 C41.83236591 147.94341912 39.58516678 147.72436993 36.56713867 147.68115234 C35.50641647 147.66128265 34.44569427 147.64141296 33.35282898 147.62094116 C32.2193251 147.60938995 31.08582123 147.59783875 29.91796875 147.5859375 C28.74865311 147.56657135 27.57933746 147.5472052 26.37458801 147.5272522 C22.64563251 147.46754805 18.91664599 147.42110703 15.1875 147.375 C12.6568877 147.33681185 10.12628827 147.29775963 7.59570312 147.2578125 C1.39724989 147.16185391 -4.80128113 147.07677942 -11 147 C-11.00142502 145.79080902 -11.00285004 144.58161804 -11.00431824 143.33578491 C-11.02105201 131.89080307 -11.06401983 120.44617388 -11.13209057 109.00137901 C-11.16625184 103.11870692 -11.19145364 97.23629156 -11.19555664 91.35351562 C-11.19986288 85.66685745 -11.22851787 79.98077734 -11.27343178 74.29430008 C-11.28633269 72.13444014 -11.29074102 69.97451076 -11.28615379 67.81461716 C-11.26618105 55.54498922 -11.70970329 45.22173332 -17 34 C-17.34949707 33.21975464 -17.69899414 32.43950928 -18.05908203 31.63562012 C-18.92494818 29.77369976 -19.86457086 27.9465109 -20.8125 26.125 C-21.41707031 24.95195312 -22.02164062 23.77890625 -22.64453125 22.5703125 C-23.09183594 21.72210938 -23.53914063 20.87390625 -24 20 C-23.39414062 19.67128906 -22.78828125 19.34257812 -22.1640625 19.00390625 C-13.35582524 14.00353771 -6.30910959 7.90723206 0 0 Z " fill="#FCFEFC" transform="translate(466,366)"/>
<path d="M0 0 C52.8 0 105.6 0 160 0 C160 54.45 160 108.9 160 165 C154.9319141 160.65592637 150.496662 156.48012015 146.15635681 151.51712036 C143.25814081 148.26846467 140.31533024 145.36599604 136.9140625 142.64355469 C129.68504065 136.65588426 124.29578198 131.44619274 123.30151367 121.78067017 C123.09299689 116.54589516 123.23225302 111.35756152 123.4375 106.125 C123.46740937 103.86108468 123.49015292 101.59706451 123.50610352 99.33300781 C123.56667954 93.42501779 123.72334329 87.52350368 123.90136719 81.61804199 C124.06619681 75.57177327 124.13835932 69.5244389 124.21875 63.4765625 C124.38942548 51.64822373 124.6618241 39.82465391 125 28 C123.24830757 28.08993477 123.24830757 28.08993477 121.46122742 28.1816864 C110.33213757 28.73447065 99.20589892 29.13621236 88.06608868 29.39892864 C82.34047358 29.53858589 76.62611242 29.72698812 70.90698242 30.03686523 C29.40948201 32.2283702 29.40948201 32.2283702 15.79512119 20.11453342 C9.8216603 14.35057639 4.53536747 7.94944605 0 1 C0 0.67 0 0.34 0 0 Z " fill="#007434" transform="translate(626,153)"/>
<path d="M0 0 C4.11867191 3.53029021 8.0076261 6.88048526 11.8125 10.6796875 C13.08480469 11.95005859 13.08480469 11.95005859 14.3828125 13.24609375 C15.67832031 14.54740234 15.67832031 14.54740234 17 15.875 C17.86367187 16.73480469 18.72734375 17.59460938 19.6171875 18.48046875 C24.62061326 23.4914985 29.39503325 28.62225786 34 34 C34.33 34.33 34.66 34.66 35 35 C35.09534958 38.13559886 35.12550879 41.24913613 35.11352539 44.38500977 C35.11367142 45.37026642 35.11381744 46.35552307 35.1139679 47.37063599 C35.11326832 50.64424807 35.10547385 53.91780404 35.09765625 57.19140625 C35.09579223 59.45442168 35.09436825 61.71743751 35.09336853 63.98045349 C35.0895421 69.94978948 35.07971075 75.91910132 35.06866455 81.88842773 C35.05845312 87.97444329 35.05387149 94.06046273 35.04882812 100.14648438 C35.03808859 112.09766689 35.02101068 124.04883144 35 136 C36.19444229 135.96669083 37.38888458 135.93338165 38.61952209 135.89906311 C49.93078199 135.59367548 61.24119572 135.3695215 72.55565739 135.22281742 C78.37162928 135.14485086 84.18424873 135.03930379 89.99829102 134.8684082 C95.62019142 134.70421344 101.23889002 134.61549718 106.86300468 134.57684135 C108.99746529 134.54933446 111.13176974 134.49561382 113.26484871 134.41404915 C130.79239787 133.77109952 130.79239787 133.77109952 137.60787964 139.27658081 C141.4640583 142.8819353 144.75075599 146.85289339 148 151 C149.38489455 152.55150053 150.77680796 154.09691795 152.1875 155.625 C154.52449986 158.36759488 156.74700977 161.18376221 159 164 C106.53 164 54.06 164 0 164 C0 109.88 0 55.76 0 0 Z " fill="#007434" transform="translate(147,615)"/>
<path d="M0 0 C45.87 0 91.74 0 139 0 C139 47.19 139 94.38 139 143 C131.11119731 136.23816912 131.11119731 136.23816912 127.84375 132.9765625 C127.13089844 132.265 126.41804687 131.5534375 125.68359375 130.8203125 C124.96300781 130.09585938 124.24242187 129.37140625 123.5 128.625 C122.77941406 127.90828125 122.05882812 127.1915625 121.31640625 126.453125 C117.28261204 122.4120364 113.41617336 118.28845203 109.72070312 113.93505859 C107.95529897 111.85909173 107.95529897 111.85909173 105.42793274 109.81614685 C102.38527959 106.28698892 102.39088657 104.61159118 102.43237305 100.0065918 C102.43164291 99.32311172 102.43091278 98.63963165 102.43016052 97.93544006 C102.43362814 95.68920925 102.47244359 93.44508457 102.51171875 91.19921875 C102.52104997 89.63695915 102.52816463 88.07468488 102.53315735 86.5124054 C102.55220324 82.41030126 102.60128187 78.30908926 102.65667725 74.20733643 C102.70792257 70.01790433 102.73068258 65.82832738 102.75585938 61.63867188 C102.80940419 53.42537288 102.89468629 45.21279757 103 37 C102.16807632 37.0199855 101.33615265 37.03997101 100.47901917 37.06056213 C92.60898418 37.24147901 84.73965494 37.37820854 76.86801243 37.46630955 C72.82166352 37.51312949 68.77704338 37.57654235 64.73168945 37.67895508 C60.82171302 37.77731224 56.91339037 37.83067175 53.00227165 37.85389519 C51.51621411 37.87042625 50.03023936 37.90271087 48.54489326 37.95157051 C36.95433172 38.31739992 36.95433172 38.31739992 32.14439392 35.07505798 C29.86743898 32.82665871 27.92413941 30.55246268 26 28 C24.86028064 26.67975936 23.71440621 25.36476875 22.55859375 24.05859375 C22.00026855 23.40874512 21.44194336 22.75889648 20.86669922 22.08935547 C17.12204169 17.89804247 13.06562925 14.00474515 9.0625 10.0625 C7.34281128 8.36815673 5.62523353 6.67166723 3.91015625 4.97265625 C3.15871338 4.23281494 2.40727051 3.49297363 1.63305664 2.73071289 C0 1 0 1 0 0 Z " fill="#009242" transform="translate(599,194)"/>
<path d="M0 0 C46.86 0 93.72 0 142 0 C137.66072824 5.06248372 133.6320836 9.40741039 128.62973022 13.70425415 C125.1751985 16.75107844 122.30952294 19.81516041 119.60693359 23.55102539 C114.08952952 30.7358805 108.54850634 36.8806909 99.1849823 38.24922276 C90.0737358 39.15572611 80.90328606 38.70276181 71.77825928 38.23596191 C67.73672015 38.04935828 63.69307271 37.9691112 59.6484375 37.87890625 C51.75993997 37.68778002 43.88154944 37.38210597 36 37 C36.05995651 37.76689651 36.11991302 38.53379303 36.1816864 39.32392883 C40.69957056 99.85150881 40.69957056 99.85150881 30.26953125 113.1484375 C25.09809934 119.05558549 18.82357969 123.80457906 12.1875 127.95458984 C8.57328043 130.2738248 5.49451434 132.9001476 2.35546875 135.8137207 C1 137 1 137 0 137 C0 91.79 0 46.58 0 0 Z " fill="#009242" transform="translate(195,194)"/>
<path d="M0 0 C38.28 0 76.56 0 116 0 C116 39.6 116 79.2 116 120 C108.14017341 113.26300578 108.14017341 113.26300578 105.51953125 110.3984375 C104.62415649 109.43055298 104.62415649 109.43055298 103.71069336 108.44311523 C103.08428955 107.76063721 102.45788574 107.07815918 101.8125 106.375 C94.69863223 98.70965642 87.36466777 91.29169742 79.9152832 83.95263672 C76.3635099 80.43778264 72.87647411 76.92858981 69.62890625 73.12890625 C64.89914728 67.61988605 59.6648821 62.59564333 54.5 57.5 C48.77093076 51.84773283 43.10490672 46.21942863 37.87304688 40.09570312 C33.63837289 35.35763724 29.02240213 30.96177625 24.5 26.5 C18.10230665 20.18807209 11.80237793 13.87419688 6 7 C4.02 4.69 2.04 2.38 0 0 Z " fill="#00B050" transform="translate(573,244)"/>
<path d="M0 0 C4.19711774 3.59752949 8.15196355 7.02463027 12.03125 10.8984375 C13.37123047 12.23648438 13.37123047 12.23648438 14.73828125 13.6015625 C15.64964844 14.51679687 16.56101562 15.43203125 17.5 16.375 C18.41136719 17.2825 19.32273437 18.19 20.26171875 19.125 C24.10354142 22.97236643 27.90366674 26.81119424 31.4375 30.9453125 C36.14311934 36.43010907 41.35934589 41.42825986 46.5 46.5 C52.22906924 52.15226717 57.89509328 57.78057137 63.12695312 63.90429688 C67.36162711 68.64236276 71.97759787 73.03822375 76.5 77.5 C82.23942628 83.16248536 87.9182081 88.80033545 93.15869141 94.93603516 C97.20466248 99.47125651 101.61064922 103.67238787 105.9375 107.9375 C107.84530947 109.81878142 109.74972477 111.70329193 111.65234375 113.58984375 C112.48757568 114.41347412 113.32280762 115.23710449 114.18334961 116.08569336 C116 118 116 118 116 119 C77.72 119 39.44 119 0 119 C0 79.73 0 40.46 0 0 Z " fill="#00B050" transform="translate(244,582)"/>
<path d="M0 0 C0 45.87 0 91.74 0 139 C-47.52 139 -95.04 139 -144 139 C-137.61482016 131.55062352 -131.1046193 124.81869781 -123.6640625 118.4453125 C-122.39833536 117.34597202 -121.1854566 116.1854566 -120 115 C-117.31936573 114.81200709 -114.74290542 114.74818009 -112.06201172 114.77294922 C-110.83262375 114.77251114 -110.83262375 114.77251114 -109.57839966 114.77206421 C-106.86205557 114.77346056 -104.14598382 114.78903599 -101.4296875 114.8046875 C-99.54924672 114.80841655 -97.66880401 114.81126403 -95.7883606 114.81326294 C-90.83334002 114.82090793 -85.87843626 114.84056381 -80.92346191 114.8626709 C-75.8695636 114.88311072 -70.81564646 114.89226066 -65.76171875 114.90234375 C-55.84109445 114.92380891 -45.92055693 114.95795526 -36 115 C-36.06883896 114.05406479 -36.13767792 113.10812958 -36.20860291 112.13352966 C-41.46635253 37.54290298 -41.46635253 37.54290298 -29.23828125 21.82421875 C-22.3985445 13.9689173 -13.96381303 8.16367625 -5 3 C-0.94298367 0 -0.94298367 0 0 0 Z " fill="#009242" transform="translate(738,599)"/>
<path d="M0 0 C7.86433133 6.74085543 7.86433133 6.74085543 10.47265625 9.59375 C11.06369141 10.233125 11.65472656 10.8725 12.26367188 11.53125 C13.1540918 12.50578125 13.1540918 12.50578125 14.0625 13.5 C15.23803748 14.78386346 16.41657465 16.06498496 17.59765625 17.34375 C18.52106056 18.36926468 18.52106056 18.36926468 19.46311951 19.41549683 C21.4113452 21.40029489 23.29652948 23.09081185 25.4443512 24.83084106 C31.55364109 29.97797133 36.59030234 34.54280685 37.48911953 42.79574394 C37.66600702 47.0535548 37.5472138 51.26785784 37.3671875 55.5234375 C37.34101082 57.36423131 37.32111304 59.20512399 37.30715942 61.04605103 C37.25419918 65.84585326 37.11716881 70.63953523 36.96130371 75.43695068 C36.81697497 80.35035407 36.75391464 85.2647665 36.68359375 90.1796875 C36.53433241 99.78911903 36.29604729 109.39404693 36 119 C36.96671631 118.96447021 37.93343262 118.92894043 38.92944336 118.89233398 C48.10622827 118.56589159 57.28181553 118.3271789 66.46311951 118.17100525 C71.18232822 118.08799931 75.8967999 117.97576534 80.61328125 117.79296875 C115.33241907 116.48240299 115.33241907 116.48240299 124.22680664 124.40454102 C126.59178471 127.00745985 128.6736521 129.63169214 130.50073242 132.63891602 C132.78614353 136.23803844 135.44194546 139.58926062 138 143 C92.46 143 46.92 143 0 143 C0 95.81 0 48.62 0 0 Z " fill="#009242" transform="translate(195,595)"/>
<path d="M0 0 C0 35.97 0 71.94 0 109 C-36.96 109 -73.92 109 -112 109 C-105.23812369 101.11114431 -105.23812369 101.11114431 -102.4140625 98.28125 C-101.48207031 97.34732422 -101.48207031 97.34732422 -100.53125 96.39453125 C-99.58765625 95.45673828 -99.58765625 95.45673828 -98.625 94.5 C-97.69300781 93.56220703 -97.69300781 93.56220703 -96.7421875 92.60546875 C-93.66538886 89.53502713 -90.54661779 86.5746182 -87.2421875 83.75 C-81.70525365 78.9675524 -76.63479386 73.7045646 -71.5 68.5 C-65.84773283 62.77093076 -60.21942863 57.10490672 -54.09570312 51.87304688 C-49.35763724 47.63837289 -44.96177625 43.02240213 -40.5 38.5 C-34.82737934 32.75030071 -29.17946692 27.0599817 -23.03271484 21.81005859 C-18.68036797 17.93445209 -14.65177023 13.71151121 -10.5625 9.5625 C-8.77440574 7.74906068 -6.98416643 5.93773299 -5.19140625 4.12890625 C-4.40967041 3.33556885 -3.62793457 2.54223145 -2.82250977 1.72485352 C-1 0 -1 0 0 0 Z " fill="#00B050" transform="translate(689,592)"/>
<path d="M0 0 C36.3 0 72.6 0 110 0 C103.23814805 7.88882728 103.23814805 7.88882728 100.1953125 10.9375 C99.19564453 11.93910156 99.19564453 11.93910156 98.17578125 12.9609375 C97.49902344 13.63382812 96.82226562 14.30671875 96.125 15 C95.12146484 16.00933594 95.12146484 16.00933594 94.09765625 17.0390625 C90.8922387 20.23830391 87.65383446 23.33827087 84.2109375 26.28125 C78.68274368 31.05099023 73.62429944 36.30607242 68.5 41.5 C62.84773283 47.22906924 57.21942863 52.89509328 51.09570312 58.12695312 C46.35763724 62.36162711 41.96177625 66.97759787 37.5 71.5 C31.7969699 77.28052194 26.11886517 83.00545647 19.93896484 88.28369141 C16.13587152 91.65006588 12.62118075 95.31676728 9.0625 98.9375 C7.55565907 100.46968728 6.04666913 101.99976519 4.53515625 103.52734375 C3.879104 104.19499756 3.22305176 104.86265137 2.54711914 105.55053711 C1 107 1 107 0 107 C0 71.69 0 36.38 0 0 Z " fill="#00B050" transform="translate(244,244)"/>
<path d="M0 0 C4.18784715 2.09392358 4.73344901 2.70392863 6.75 6.625 C7.17796875 7.44226563 7.6059375 8.25953125 8.046875 9.1015625 C8.36140625 9.72804688 8.6759375 10.35453125 9 11 C12.465 8.03 12.465 8.03 16 5 C15.76410156 6.08087891 15.76410156 6.08087891 15.5234375 7.18359375 C12.60094631 22.90834113 21.33972762 35.99135785 28.1875 49.5625 C28.94539392 51.07210252 29.70312395 52.58178733 30.46069336 54.09155273 C34.9766754 63.07459807 39.55416517 72.02264462 44.30737305 80.88305664 C47 85.90885647 47 85.90885647 47 87 C20.6 87 -5.8 87 -33 87 C-31.68 84.69 -30.36 82.38 -29 80 C-29.06508145 77.00625308 -29.74622516 74.70845477 -30.75 71.90625 C-32.80578028 66.13425151 -34.55613519 60.96607475 -32.2199707 55.01196289 C-28.52721642 47.99874391 -23.35831408 42.89991667 -17.6875 37.4375 C-16.75615234 36.52419922 -15.82480469 35.61089844 -14.86523438 34.66992188 C-12.58588332 32.43732673 -10.29418137 30.21735297 -8 28 C-9.98 23.38 -11.96 18.76 -14 14 C-9.38 9.38 -4.76 4.76 0 0 Z " fill="#FBFDFC" transform="translate(319,426)"/>
<path d="M0 0 C1.26784792 2.53569585 0.92998042 4.05257973 0.75 6.875 C0.74110814 13.79287014 3.03043064 18.87805212 6 25 C6.91615907 26.92279874 7.83144265 28.84601474 8.74609375 30.76953125 C10.24024811 33.90610549 11.73909663 37.03998137 13.25317383 40.16699219 C13.72134521 41.13411133 14.1895166 42.10123047 14.671875 43.09765625 C15.30754395 44.40488647 15.30754395 44.40488647 15.95605469 45.73852539 C18.64408774 51.56154929 19.01868729 57.83121815 17.4921875 64.078125 C12.96314702 74.5432865 2.22310254 82.85009778 -6.0246582 90.42773438 C-10.62699689 94.68736272 -15.08711054 99.06578187 -19.4921875 103.52734375 C-20.06241135 104.10371582 -20.63263519 104.68008789 -21.22013855 105.27392578 C-24.08214499 108.16912647 -26.93475581 111.07283938 -29.77563477 113.98876953 C-39.00888035 123.39359682 -48.80807156 132.31240526 -62.58984375 133.2421875 C-65.73809854 133.2490241 -68.85734979 133.17986551 -72 133 C-72.33 132.34 -72.66 131.68 -73 131 C-71.90945313 130.61521484 -71.90945313 130.61521484 -70.796875 130.22265625 C-56.69880863 124.85454636 -47.16643255 115.48701635 -36.859375 104.8671875 C-33.72984939 101.67064595 -30.44643184 98.73410736 -27.05761719 95.81738281 C-23.30942982 92.50681011 -19.78661605 88.97097518 -16.25 85.4375 C-15.50878906 84.70853516 -14.76757812 83.97957031 -14.00390625 83.22851562 C-6.91608556 76.40810794 -6.91608556 76.40810794 -3.3515625 67.4765625 C-3.70307075 60.9347762 -7.44578968 55.08895802 -10.375 49.375 C-11.57643477 46.98998618 -12.76875158 44.60060794 -13.9609375 42.2109375 C-14.76217041 40.63771729 -14.76217041 40.63771729 -15.57958984 39.03271484 C-18.52985151 32.73361715 -20.54496214 26.69530393 -18.30078125 19.875 C-14.68503284 12.34779141 -8.19643317 7.35437726 -2 2 C-1.34 1.34 -0.68 0.68 0 0 Z " fill="#F9FDFB" transform="translate(414,436)"/>
<path d="M0 0 C2.76261873 1.38130937 3.48681791 3.5334684 4.9140625 6.16796875 C6.05560906 8.22219241 6.05560906 8.22219241 8.25 10.5625 C10 13 10 13 10.5625 15.75 C9.75423129 20.41999699 7.48213575 24.01085325 5 28 C2.64925918 26.87895343 0.79362091 25.83375018 -1.25 24.1875 C-4.13496457 21.89264182 -7.11360682 20.13227891 -10.328125 18.34375 C-12 17 -12 17 -12.92578125 15.08984375 C-13 13 -13 13 -11.77734375 11.03515625 C-11.17019531 10.38417969 -10.56304687 9.73320312 -9.9375 9.0625 C-9.29554688 8.37285156 -8.65359375 7.68320312 -7.9921875 6.97265625 C-5.44905522 4.45445664 -2.82082231 2.20161742 0 0 Z " fill="#F6FCF9" transform="translate(334,396)"/>
<path d="M0 0 C1.34592097 1.65651812 2.67518731 3.32655239 4 5 C4.52851563 5.62777344 5.05703125 6.25554687 5.6015625 6.90234375 C8.01862044 9.88643661 9.80437579 12.16415109 10.6875 15.9375 C9.67485018 20.44839463 7.42697206 24.09950919 5 28 C2.64925918 26.87895343 0.79362091 25.83375018 -1.25 24.1875 C-3.58379488 22.33107225 -5.7202624 21.04684461 -8.3125 19.625 C-11.86673843 17.40866881 -11.86673843 17.40866881 -12.9375 14.125 C-11.04688808 7.82296026 -5.08845567 3.85489066 0 0 Z " fill="#F7FCF9" transform="translate(307,396)"/>
<path d="M0 0 C0.41765625 0.55945313 0.8353125 1.11890625 1.265625 1.6953125 C2.44701545 3.26517819 3.64574804 4.8221078 4.859375 6.3671875 C5.48328125 7.19476563 6.1071875 8.02234375 6.75 8.875 C7.38421875 9.69742187 8.0184375 10.51984375 8.671875 11.3671875 C10.38745924 14.76808096 10.05661718 16.38550865 9 20 C7.80859375 22.3359375 7.80859375 22.3359375 6.4375 24.375 C5.98246094 25.06335938 5.52742187 25.75171875 5.05859375 26.4609375 C4.53458984 27.22277344 4.53458984 27.22277344 4 28 C3.5153125 27.62488281 3.030625 27.24976563 2.53125 26.86328125 C-1.64505194 23.67483535 -5.79527749 20.84909833 -10.43359375 18.37109375 C-12 17 -12 17 -13.01953125 14.671875 C-13 12 -13 12 -11.015625 9.39453125 C-10.10296875 8.54246094 -9.1903125 7.69039063 -8.25 6.8125 C-7.34765625 5.95269531 -6.4453125 5.09289062 -5.515625 4.20703125 C-3 2 -3 2 0 0 Z " fill="#F8FDFA" transform="translate(525,417)"/>
<path d="M0 0 C1.03253906 0.01353516 1.03253906 0.01353516 2.0859375 0.02734375 C3.76577838 0.05067487 5.44543746 0.08653674 7.125 0.125 C4.43268494 2.81731506 1.24736313 3.99227213 -2.19140625 5.49609375 C-2.92189682 5.81908951 -3.65238739 6.14208527 -4.40501404 6.47486877 C-5.95495909 7.15878429 -7.50593923 7.84035805 -9.05786133 8.51977539 C-11.40672787 9.54901608 -13.75139745 10.58737328 -16.09570312 11.62695312 C-17.60652572 12.2922236 -19.11758638 12.95695373 -20.62890625 13.62109375 C-21.66538048 14.08061684 -21.66538048 14.08061684 -22.72279358 14.54942322 C-30.03074806 17.73517718 -36.84939633 20.5679138 -44.9375 20.3125 C-46.62552734 20.27189453 -46.62552734 20.27189453 -48.34765625 20.23046875 C-49.18167969 20.19566406 -50.01570313 20.16085937 -50.875 20.125 C-49.19720842 16.76941683 -45.42311919 15.94529947 -42.11328125 14.5 C-41.32986862 14.15243652 -40.54645599 13.80487305 -39.73930359 13.44677734 C-38.07698315 12.71080943 -36.41326702 11.97798724 -34.74829102 11.24804688 C-32.21248049 10.13595531 -29.68113383 9.01419304 -27.15039062 7.890625 C-25.53410979 7.1765045 -23.91758097 6.46294494 -22.30078125 5.75 C-21.54742996 5.41661621 -20.79407867 5.08323242 -20.01789856 4.73974609 C-13.23215734 1.77089794 -7.50416928 -0.18905853 0 0 Z " fill="#EFFAF4" transform="translate(547.875,376.875)"/>
<path d="M0 0 C0.67933594 0.01353516 1.35867188 0.02707031 2.05859375 0.04101562 C3.70608512 0.07582178 5.35315841 0.12960323 7 0.1875 C4.98167349 2.20582651 3.59732627 2.95477757 1.02734375 4.10546875 C0.21773193 4.46962891 -0.59187988 4.83378906 -1.42602539 5.20898438 C-2.29606201 5.59376953 -3.16609863 5.97855469 -4.0625 6.375 C-4.95122803 6.77138672 -5.83995605 7.16777344 -6.75561523 7.57617188 C-33.26949994 19.33181651 -33.26949994 19.33181651 -42.1875 19.25 C-43.45980469 19.24097656 -44.73210937 19.23195313 -46.04296875 19.22265625 C-47.50669922 19.20525391 -47.50669922 19.20525391 -49 19.1875 C-45.7472078 16.51762408 -42.3826679 14.86705473 -38.546875 13.15625 C-37.92782288 12.87906128 -37.30877075 12.60187256 -36.67095947 12.31628418 C-35.36422203 11.73239741 -34.05639645 11.15094051 -32.74755859 10.57177734 C-30.7679318 9.69543803 -28.79194208 8.81129831 -26.81640625 7.92578125 C-23.22222553 6.31956427 -19.61439843 4.74770099 -16 3.1875 C-15.20013672 2.83518311 -14.40027344 2.48286621 -13.57617188 2.11987305 C-8.80801398 0.14654084 -5.08359561 -0.13616774 0 0 Z " fill="#F4FBF7" transform="translate(412,395.8125)"/>
<path d="M0 0 C1.24523437 0.01804687 2.49046875 0.03609375 3.7734375 0.0546875 C5.18496094 0.08949219 5.18496094 0.08949219 6.625 0.125 C3.38082421 2.78414424 0.02730179 4.44282793 -3.79296875 6.15625 C-4.4096492 6.43343872 -5.02632965 6.71062744 -5.66169739 6.99621582 C-6.96420722 7.58016509 -8.26783772 8.16162036 -9.57250977 8.74072266 C-11.54176237 9.61578497 -13.50640416 10.50060221 -15.47070312 11.38671875 C-33.75144782 19.58679638 -33.75144782 19.58679638 -42.4375 19.3125 C-44.12552734 19.27189453 -44.12552734 19.27189453 -45.84765625 19.23046875 C-46.68167969 19.19566406 -47.51570312 19.16085937 -48.375 19.125 C-46.7462352 15.8674704 -43.26274223 15.10894509 -40.05078125 13.71875 C-39.31176071 13.39338257 -38.57274017 13.06801514 -37.81132507 12.73278809 C-36.24315561 12.04388772 -34.6735964 11.35814367 -33.1027832 10.67529297 C-30.7118661 9.63559567 -28.32536152 8.58628899 -25.93945312 7.53515625 C-24.41431454 6.86661223 -22.88893141 6.19862576 -21.36328125 5.53125 C-20.65367752 5.21973999 -19.94407379 4.90822998 -19.21296692 4.58728027 C-12.67691872 1.75183131 -7.24026114 -0.1366087 0 0 Z " fill="#F4FBF8" transform="translate(623.375,390.875)"/>
<path d="M0 0 C3.43919019 3.43919019 5.05905194 8.07701858 7.125 12.4375 C7.59292969 13.40494141 8.06085938 14.37238281 8.54296875 15.36914062 C8.98511719 16.29791016 9.42726563 17.22667969 9.8828125 18.18359375 C10.28902832 19.03493896 10.69524414 19.88628418 11.11376953 20.76342773 C12 23 12 23 12 26 C8.37 26 4.74 26 1 26 C-0.21087517 23.82284041 -1.39275063 21.63662881 -2.5625 19.4375 C-3.07586914 18.52387695 -3.07586914 18.52387695 -3.59960938 17.59179688 C-5.97164245 13.06337009 -6.38826088 10.10681681 -5 5 C-2.4375 2.0625 -2.4375 2.0625 0 0 Z " fill="#07B255" transform="translate(320,469)"/>
<path d="M0 0 C0.45890625 1.0621875 0.9178125 2.124375 1.390625 3.21875 C5.21988728 12.13709467 5.21988728 12.13709467 9.4375 20.875 C11 24 11 24 11 26 C7.17309337 26.61284982 3.79803816 26.87125326 0 26 C-4.25457618 21.55724065 -6.68711381 15.763828 -7.375 9.6875 C-6.95619457 5.56924657 -5.00924751 0 0 0 Z " fill="#06B254" transform="translate(605,469)"/>
</svg>
